<svg xmlns="http://www.w3.org/2000/svg" viewBox="0 0 22 21"><path d="M22 12c-.2-3.5-.2-6.9-.6-10.4C18-1.1 10 1.3 5.4 0 4 0-.1-.1 0 1.6v.9C.2 4.3.1 6.2.2 8c1.5 3.6-2.4 12.5 3.1 12.8a136.7 136.7 0 0018.1-.2c.9-2.7.5-5.7.6-8.6zM8.8 5.8c1.4-.3 4.2-.7 4.6.9h.1c1 0 1.3.8 2.3.8.1 2.7.9 5.8-1.9 7.8s-4.6.5-7.1-1a6.5 6.5 0 01.5-7.7c.3.1.4 0 .4-.3a.9.9 0 001.1-.5zM7.2 3.1c-.2-.2-.1-.6-.1-1s.6-.5.1-.6a1.4 1.4 0 01.9 0c.2.6-1.3.7-.1.7a16.1 16.1 0 000 2.2h-.5c0 .3.3.2.5.2s.1.4.1.6-.7.1-1.1.1.2-1.3.2-2.2zm-.7-1.5c.4 0 .1.7 0 .9s0-.6 0-.9zm.1 1.8a.4.4 0 01-.1-.5.7.7 0 01.1.5zm0 1.3c0 .2-.1 0-.1-.1s.1 0 .1.1zm-.1.2c.1 0 0 .3.2.3s-.3.1-.4 0 .1-.1.2-.3zM4.1 3.7c0-.1 0-.2-.1-.2s.1-1.4 0-1.9.8-.1 1.2-.1v1.1h-.4c.7.5.2 1.9.5 2.7a7.6 7.6 0 00-1.5.1c.1-.6 0-1.4.6-1.6s-.3.1-.3-.1zm-.6 0c-.2.1-.2-.5 0-.6s.2.5 0 .6zm-.1 1c.1-.3 0-.3.1-.7s.2.8-.1.7zm.2-2c-.2.1-.3-.3-.1-.4s.2.3.1.4zm0-1.1c.1.1 0 .2-.1.3s0-.2-.2-.3.2 0 .3 0zm-.2 3.6c.1 0 .1.4-.1.3a.4.4 0 00.1-.3zm-.7-3.6c0 .2-.4.3-.4 0zm-1 0c0 .3-.3.2-.4.4s.1-.4.4-.4zm-.5.8l.7-.6c0-.1.1-.1.1-.2h.2c.1.3-.2.3-.3.5s.1.7 0 1.2-.3.3-.6.2-.1-.6-.1-1.1zm.1 3.2c0-.6-.2-1.8.6-2.1s.2 1.4.5 1.9zm18.5 11a21.9 21.9 0 01-.4 2.7c-2.9-.1-6.8.5-9.2 0-.3 0-.3.2-.6.2s.5-.9.2-1.3-.8.8-1.2 1.3a10.9 10.9 0 00-1.8.1c1.9-3-.2-2.1-1.1 0h-1c.2-.8 2.5-3.2.8-2.7a9.1 9.1 0 00-1.1 1.6c-.7.1-1 .8-1.6 1.2s.1-.3.2-.4-.1-.5.1-.6.8-1.8 1.1-2.7-1.3 1.4-1.7 2.2c-.5-1.3.9-2.9.4-4.1s-.4.1-.4.3-.4-6.5-1-7.7l4.8.2c-4.8 5.9 2.1 12.6 8.5 9.4 3-1.7 4.4-7.4 1.3-9.7 1.1-.1 2.6.1 3.8.1.2 3 .5 6.8-.1 9.9zm.4-11.1l-2-.3c1.2-.4 1.4 0 1.3-1.8s-1.2-1.6-2.8-1.5-.9 3.4 1.2 3.1c-2.7.1-5.7-.2-8.6.1a14.5 14.5 0 00-.1-3.6h3.2c-.8.6-1.9.9-2.5 1.7 1.4-.3 2.7-2.1 4.3-1.6 3.4.2 7.5-1 6 3.9zm-6-3.6c.1-.1 0-.1 0 0zm0 0a3.5 3.5 0 00-1.4.6 3 3 0 001.4-.6zm1.1.6c.1-.1 0-.1 0 0zm-1.8.9a7.6 7.6 0 001.8-.9 4.4 4.4 0 00-1.8.9zm-.7-.9c-.1.1.1.1 0 0zm-.6.6zm-.1.1a.1.1 0 00.1-.1.1.1 0 00-.1.1zm-.1.1zm-.8.6a1.6 1.6 0 00.8-.6 1.2 1.2 0 00-.8.6zm2.3 1a6.1 6.1 0 002.2-1.3 4.5 4.5 0 00-2.2 1.3zm-2.3-1c-.4-.1-.1.2 0 0zm-.6.4zm2.9.6c-.1 0 0 .1 0 0zm-1.2 1.8c-1.9-1.1-3.8.3-5.1 1.4l-.6.7c0 .2.1.3-.1.3-.7 5.6 5.4 8.1 8.6 3.8.5-2.3.8-5.2-1.7-6.2a1.4 1.4 0 00-1.1 0zm-3.5 4.2c-.1 0-.1-.2-.1-.3s.1.2.1.3zm.1.3c.1-.1.1 0 .1.1s-.1 0-.1-.1zm.5-2h.1c-.1.1-.1.1-.1 0zm1.7-2.1c-.2.3 0 .6.1.8s-.6-.8-.1-.8zm.4 3.9c-.1 0 0-.1 0-.1v.1zm.7 2.9zm2.3-2.6c-.3 0-.2.2-.4.2a.8.8 0 01.2-.5c.1 0 .2.1.2.3zm-1.2-3.7c1.3.5 1.1 1.9 1.2 3.2-1.5.9-3.6-.1-3.2-1.9s1.2-.7.9-1.4.6.1 1.1.1z"/></svg>