<svg xmlns="http://www.w3.org/2000/svg" viewBox="0 0 32 37"><path d="M16 37a16 16 0 0016-15.9A16 16 0 0016 37zM4.6 16.3a4.5 4.5 0 004.5 4.4 4.4 4.4 0 002.5-.8v.4a4.4 4.4 0 108.8 0v-.4a4.4 4.4 0 002.5.8 4.4 4.4 0 001.9-8.4 4.4 4.4 0 002.6-3.9A4.4 4.4 0 0022.9 4a5.2 5.2 0 00-2.5.7v-.3a4.4 4.4 0 10-8.8 0v.3A4.3 4.3 0 009.1 4a4.4 4.4 0 00-4.5 4.4 4.4 4.4 0 002.6 3.9 4.4 4.4 0 00-2.6 4zM16 7.9a4.4 4.4 0 014.4 4.4 4.3 4.3 0 01-4.4 4.4 4.3 4.3 0 01-4.4-4.4A4.4 4.4 0 0116 7.9zM0 21.1A16 16 0 0016 37 16 16 0 000 21.1z"/></svg>