<svg xmlns="http://www.w3.org/2000/svg" viewBox="0 0 32 32"><path d="M2.8 32h12.3V18.3H2.8zM30.4 8.7h-7.1a5.7 5.7 0 001.3-.8A4.8 4.8 0 0027 4a3.8 3.8 0 00-1.3-2.9 4.6 4.6 0 00-3-1.1 5.2 5.2 0 00-3.2 1.1 9.5 9.5 0 00-3.4 4v.2a16.2 16.2 0 00-1-1.8 9.5 9.5 0 00-2.5-2.4A5.2 5.2 0 009.3 0a4.4 4.4 0 00-3.1 1.3 4.1 4.1 0 00-1.4 3.1 4.2 4.2 0 00.6 2.1A6.4 6.4 0 008 8.7H1.6A1.6 1.6 0 000 10.3v5.8h15.1V8.7h1.8v7.4H32v-5.8a1.6 1.6 0 00-1.6-1.6M8.5 6.4a4.4 4.4 0 01-1.2-1.1 1.5 1.5 0 01-.2-.9 1.8 1.8 0 01.6-1.5 2.5 2.5 0 011.6-.6 4.1 4.1 0 012 .6 9.4 9.4 0 012.6 3.2 6.8 6.8 0 01.7 2 15 15 0 01-6.1-1.7m10.4-1.6a6.6 6.6 0 011.8-1.9 3.9 3.9 0 012-.6 2.5 2.5 0 011.5.5 1.3 1.3 0 01.5 1.2c0 .5-.2 1.2-1.4 2.1a15.7 15.7 0 01-6 2.2 10 10 0 011.6-3.5m-2 27.2h12.3V18.3H16.9z"/></svg>