<svg xmlns="http://www.w3.org/2000/svg" viewBox="0 0 34 34"><path d="M4.4 17L.3 20.1a16.2 16.2 0 010-6.2zM24.1 1.6a16.5 16.5 0 00-15 .4l7.4 5.5zM33.5 13l-4.7 3.7 4.9 3.7a18.5 18.5 0 00-.2-7.4zM9.1 32.1a17.2 17.2 0 0015.6.1l-8-6zM7.8 14.3L1.7 9.7a12.1 12.1 0 00-.9 2l5.3 3.9zm10.6 10.5l8.2 6.2.8-.6a3.9 3.9 0 001-.8l-8.3-6.1zm-7.1-13.2L4 6.1a10.9 10.9 0 00-1.3 1.7l6.9 5.1zm10.6 10.5l8 6a10.4 10.4 0 001.2-1.7l-7.5-5.6zM14.8 8.9L7.1 3.2a1 1 0 00-.5.4l-1.2.9 7.6 5.7zm10.5 10.5l6.9 5.2.9-2-6.1-4.5zm.9-16.7L.9 22.4a11.9 11.9 0 00.8 2L27.9 4a10.9 10.9 0 00-1.7-1.3zm4.2 3.9l-.9-1.1L2.8 26.3a4.4 4.4 0 00.8 1.1l.4.6L30.8 7.1a1 1 0 00-.4-.5zm1.5 2.3L5.5 29.5l1.7 1.4 25.7-20a12.4 12.4 0 00-1-2z"/></svg>