<svg xmlns="http://www.w3.org/2000/svg" viewBox="0 0 20 31"><path d="M7.5 18.9a3.8 3.8 0 00.1 1.8c.2 1.3.8 3 1.1 4.8h2.6c.3-1.8.9-3.5 1.2-4.8a5.3 5.3 0 000-1.8c-.1-.5-.4-.8-1-1.2h-3a2.8 2.8 0 00-1 1.2zm5.9 9.9H6.6a1.1 1.1 0 00-1.2 1.1V31h9.2v-1.1a1.1 1.1 0 00-1.2-1.1zM17 1.1h-5.9a1.1 1.1 0 00-2.2 0H3L0 13.8a2.9 2.9 0 011.3-.5 2.4 2.4 0 011.5.7c.3.2.5.4.7.4a1.3 1.3 0 00.7-.4 2.1 2.1 0 011.5-.7 2.1 2.1 0 011.4.7l.7.4h.3l.4-.3a3.3 3.3 0 011-.6h.5a2.4 2.4 0 011.5.7c.3.2.5.4.7.4l.7-.4a2.1 2.1 0 011.4-.7 2.1 2.1 0 011.5.7l.4.3h.3c.2 0 .4-.2.7-.4a2.4 2.4 0 011.5-.7 2.1 2.1 0 011.3.5zm-5.3 25.5H8.3a.6.6 0 00-.6.5.6.6 0 00.6.6h3.4a.6.6 0 00.6-.6.6.6 0 00-.6-.5z"/><path d="M10 14.4h-.3l-.3.2v1.9h1.2v-1.8z"/></svg>