<svg xmlns="http://www.w3.org/2000/svg" viewBox="0 0 86 35"><path d="M1.2 27.3c-.6-.4-1-1.1-.4-1.6C1 19.2-.7 12.4.5 6.1 1 4.9 3.9 4.8 3.7 6c2 3.7 3 7.8 5 11.5A62 62 0 0012 6.6c-.9-1.7 4.4-2.9 3.3-.8.9 6 .4 12.3.7 18.4.9 2 0 4.7-2.6 4.2-.7-.2-.8-.7-.3-1.2-.8-3.8-.1-7.8-.6-11.7-1 2.2-1.1 4.6-1.9 6.8.8 1.7-4.4 2.8-3.4.7-.7-2.9-2.5-5.4-3.5-8.2-.7 3 3 14.3-2.5 12.5zM22.3 7.8c-.1-.6-3.4.1-3.3.9.4 3.5-.1 6.9.8 10.3s.6 5.7.2 8.3c-.4.4 1.2.3 1.3.3 2.1-.1 2.5-2 2-3.7-.3-5.4-.8-10.7-1-16.1zm3.1 6.7c.9 2.5 4.7 1.3 6.6 1.4s2.3 4.7 2.3 6.7 1 2.9.2 3.8c-5.1 1.9-5.4.4-4.8-4.3-.1-.8-3.4-.1-3.3.9s-1.2 5.1 2 5.5 10.9-.4 9.4-5.3c-.5-2.4.6-5.3-1-7.4-5.2-4.2-8.7 3.6-8.6-7.7-.1-1 .2-2.5 1.3-2.7s4.8-.2 4.3 2 3.1.4 3.3-.5C38 1.7 24.7 3.5 24.9 8c.3 2.1.1 4.3.5 6.5zm14.5 1.8c-.5 3.7.1 7.4.2 11-.2.6 3 .2 3.3-.6.4-3.1-1-6.2-.3-9.3a21.8 21.8 0 015.1-.1c.1 3.1.8 6.3.3 9.4s2.6 1.6 3.1.3c1.1-6.9-.9-14-.8-20.9 0-1.7-3.3-1.1-3.3.3 0 3.1.4 6.2.6 9.2l-4.9.3c.1-4-.5-7.8-.4-11.7-6.2-1.6-2 8.7-2.9 12.1zM54 21.7c-.3.3-.2.4 0 .5s-1.3 5.2.7 5.4c3.6.3 2.3-4.1 2.6-6.4a32.1 32.1 0 003.4-4.8A106.9 106.9 0 0165 27c.5 1.5 3.8.6 3.3-.9a110.2 110.2 0 00-5.6-13.3c1.8-2.9 2.5-6.7 5-9.2.5-.4.5-.8-.2-.8-4.8.1-5.5 6.4-7.7 9.7a.9.9 0 00-.5 1q-1 2.1-2.1 3.9c-.3-4.6-.8-9.3-1-14 0-1-3.3-.4-3.3.9.2 5.8 1 11.6 1.1 17.4zm29.6-4.8C83 20 85.9 26.2 81.5 27c-.1 0-1.7.1-1.3-.3 1-2.9-.2-6.6.1-9.7-2.2.7-4.8-.5-7 .1-.4 3.2 2.2 11.6-3.2 10 .4-5.5-.7-11.1-.4-16.6s6.1-5.8 10.2-6 3 7 3.7 10.3c2.4-.4 2.5 1.9 0 2.1zm-3.3-1.6c-.7-2.9.6-6.7-1.1-9.2-6.4-1.9-6.8 4.6-6 9.3 2.2-.5 4.7.1 7.1-.1zM18.6 4c0 .2 0 .4.2.5s2.2 1.2 2.9.4-.2-2.6.3-4-3.2-1.1-3.4.3a20.9 20.9 0 00.1 2.5.4.4 0 01-.1.3zm61.6 29.2c-12.8-2.8-26.1.1-39.1-.9s-26.4-1.7-39.2 1.8c26 .5 52.5 1.9 78.4-.8v-.5a.6.6 0 00-.1.4z"/></svg>