<svg xmlns="http://www.w3.org/2000/svg" viewBox="0 0 113 46"><path d="M98.8 15.5c0 1.9.2 3.8.3 5.7-2.6.3-5.4-.5-7.9.1-.4-3.7-1.4-10.7 4.1-10.6 3.3-1.3 3.9 2.4 3.5 4.8zm12.1 26.3c-.4-.5-17.3 7.8-20.8 2.2-20.3-2.9-41.1.5-61.5-.3-6.6-.6-16.6 1.8-23-.4-.8-.7-7.1-4.1-3.1-4.9-1.4-9.3-3.8-27.9 1.3-35.1 2.6-3.8 31.3-1.7 37.5-2 12.4-.5 24.9 1.4 37.6.4 5.5-.4 30.2-4.8 32.2 1.7.7 2.5 4.2 39.2-.2 38.4zM26.8 31.3c-.4-6.9.2-14-.8-20.8 1.2-2.3-4.8-1-3.8.9a75.7 75.7 0 01-3.7 12.3c-2.2-4.1-3.4-8.7-5.6-12.9.2-1.4-3-1.3-3.7 0-1.3 7.1.7 14.8.4 22.1-.7.6-.2 1.4.4 1.8 6.2 2.2 2.1-10.8 2.9-14.1 1.1 3.2 3.2 6 4 9.3-1.3 2.4 4.6 1.2 3.7-.8.9-2.5 1.1-5.2 2.2-7.6.5 4.3-.2 8.9.6 13.1-.6.6-.4 1.2.4 1.4 2.9.6 3.9-2.4 3-4.7zM30.2 10c1.2.7 3.9-.3 3.6-1.8a8.5 8.5 0 01-.4-3.2c-.1-1.9-3.5-1.2-3.7.3a14.1 14.1 0 00.1 2.9 1 1 0 000 .9 1.1 1.1 0 00.4.9zm4.7 20.9c-.3-6.1-.9-12-1.1-18.1-.1-.7-3.8.1-3.7 1 0 7 1.4 14.1 1.1 20.9-.4.5 1.4.4 1.5.4 2.4-.1 2.9-2.3 2.2-4.2zm16.4-.7c1.1-18.1-10.2-3.9-10.5-13.1.3-2.2-1.6-6.1 1.2-7s5.3-.3 4.8 2.2 3.4.5 3.7-.6c1-5.8-14-3.7-13.7 1.3.5 7.2-.8 10.1 7.9 9 3.7.2 2.6 5.2 2.6 7.4s1.2 3.3.2 4.3-1.8.7-2.6.7c-4 1.1-2.8-3.1-2.7-5.5-.1-.9-3.9-.1-3.7 1s-1.4 5.8 2.2 6.2 12.3-.5 10.6-5.9zm15.9-1.7c-.5-5.8-1-11.7-1.2-17.6 0-1.9-3.8-1.3-3.8.3 0 3.5.5 6.9.7 10.4-1.9 0-3.7.2-5.6.3.2-4.4-.5-8.8-.4-13.2 0-.5-3.7-.1-3.7 1 .4 8.3.2 16.8.7 25-.3.8 3.3.3 3.6-.6.5-3.5-1-7-.3-10.5a28.2 28.2 0 015.8-.1c.1 3.5 1 7.1.3 10.5s3 1.8 3.5.4.5-4 .4-5.9zm18.5 4.9a140.8 140.8 0 00-6.4-15c2.1-3.3 2.9-7.6 5.7-10.4.5-.4.5-.8-.3-.9-5.4.2-6.1 7.2-8.6 11a1.1 1.1 0 00-.6 1.2 46.3 46.3 0 01-2.4 4.3c-.3-5.2-.9-10.5-1.1-15.7 0-1.2-3.7-.5-3.7 1 .3 6.5 1.2 13 1.2 19.5-.3.3-.2.5 0 .6.6 1.7-1.4 6 .9 6.1 4 .3 2.6-4.7 2.9-7.3a28.5 28.5 0 003.8-5.3c1.9 3.9 3.3 7.9 4.9 11.9.5 1.8 4.2.7 3.7-1zm19.3-12c-.2-.7-1.3-.8-2.1-.7-.8-3.8 1.7-11.9-4.2-11.6S88 10.3 87.3 15.8s.8 12.5.4 18.7c6 1.9 3.1-7.7 3.6-11.2 2.5-.7 5.4.7 7.9-.1-.4 3.5 1 7.6-.2 10.8-.4.5 1.4.4 1.5.4 5-.9 1.7-7.9 2.4-11.3 1.1-.2 2.3-.9 2.1-1.7z"/></svg>