<svg xmlns="http://www.w3.org/2000/svg" viewBox="0 0 101 77"><path d="M50.7 74.5c-7.9 0-15.2-.3-28.4-.9l-6-.3C4 72.1 3.3 64.6 2.7 49c0-2.1-.1-4.2-.2-6.4s.1-6 .1-9.3c-.1-17.4.8-28.8 12.6-29.6l9.6-.4c12.8-.5 19.2-.8 25.6-.8s12.6.3 25.2.8l10 .4c7.8.1 11.2 7.2 11.7 13.2 2.9 36.4-.2 48.7-3.4 52.7a10.9 10.9 0 01-7.8 3.6h-.6c-17.6.8-26.4 1.2-34.7 1.2z" fill="#63d1bb"/><path d="M50.4 5c6.2 0 12.5.3 25.1.8l10 .4h.2c7.7.1 9 9 9.1 10.9 3.1 38.6-.9 48.4-2.8 50.8a8.6 8.6 0 01-6.2 2.9h-.5c-17.5.8-26.2 1.2-34.6 1.2s-15.1-.3-28.3-.9l-5.9-.3C7 69.9 5.8 65.5 5.2 48.9c0-2-.1-4.1-.2-6.3s.1-6.2.1-9.3c0-7.1 0-14.5 1.6-19.8s4-7 8.6-7.3l9.7-.4C37.7 5.3 44.1 5 50.4 5m0-5c-7.9 0-15.7.4-35.3 1.2S.8 26.1 0 42.6c.9 17.9-1.1 31.6 16.1 33.2S41.7 77 50.7 77s17.6-.4 35-1.2c2-.3 6.3-.3 10.1-4.6 7.6-9.3 4.9-43.8 4-54.5-.7-7.3-4.9-15.4-14.1-15.5C66 .4 58.2 0 50.4 0z" fill="#fff"/><path fill="#fff" d="M37.8 19.3v38.4l31.5-19.2-31.5-19.2z"/></svg>