<svg width="0" height="0" style="position:absolute"><symbol viewBox="0 0 32 22" id="svg--camera" xmlns="http://www.w3.org/2000/svg"><path d="m26 10 6-4v16l-6-4zm-2 0v8a4 4 0 0 1-4 4H4a4 4 0 0 1-4-4v-8a4 4 0 0 1 4-4h10a2 2 0 0 1 2-2V2H5a.9.9 0 0 1-1-1 .9.9 0 0 1 1-1h12a.9.9 0 0 1 1 1v3a2 2 0 0 1 2 2 4 4 0 0 1 4 4zm-12 0H4v8h8zm8 1a.9.9 0 0 0-1-1h-4a.9.9 0 0 0-1 1 .9.9 0 0 0 1 1h4a.9.9 0 0 0 1-1z" fill="#63d1bb"/></symbol><symbol viewBox="0 0 14 13" id="svg--cart" xmlns="http://www.w3.org/2000/svg"><path d="M13.5 5h-2.2L9 .3c-.2-.3-.5-.4-.7-.2a.4.4 0 0 0-.3.6L10.1 5H3.8L6 .7a.4.4 0 0 0-.3-.6c-.2-.2-.5-.1-.7.2L2.7 5H.5a.5.5 0 0 0-.5.5.5.5 0 0 0 .5.5h.1l.6 2.1a.5.5 0 0 0-.2.4.5.5 0 0 0 .5.5l1.1 4h8.8l1.1-4a.5.5 0 0 0 .5-.5.5.5 0 0 0-.2-.4l.6-2.1h.1a.5.5 0 0 0 .5-.5.5.5 0 0 0-.5-.5zm-2.9 7H3.4l-.8-3h8.8zm1.1-4H2.3l-.6-2h10.6z"/></symbol><symbol viewBox="0 0 47 81" id="svg--flag" xmlns="http://www.w3.org/2000/svg"><path fill="#63d1bb" d="M7.8 3.9v38.5L47 23.1 7.8 3.9z"/><path fill="#231f20" d="M0 0h3.8v81H0z"/></symbol><symbol viewBox="0 0 51 17" id="svg--footer-logo" xmlns="http://www.w3.org/2000/svg"><path d="M9.5 14.4c.5 1.2 0 2.8-1.5 2.5s-.5-.4-.2-.7c-.5-2.2-.1-4.6-.4-6.9a29.8 29.8 0 0 0-1.1 4c.4 1-2.7 1.7-2 .4s-1.5-3.2-2.1-4.9c-.4 1.8 1.7 8.6-1.5 7.4-.4-.2-.6-.6-.3-.9.2-3.9-.8-7.9-.2-11.6.4-.7 2.1-.8 2 0s1.8 4.6 3 6.7A36.1 36.1 0 0 0 7.1 4c-.5-1 2.7-1.7 2-.5.5 3.6.2 7.3.4 10.9zm4.3-3.3a34.5 34.5 0 0 1-.5-6.4c-.1-.4-2.1.1-2 .5 0 3.7.8 7.5.6 11.1.1.5 1.7 0 1.9-.4s-.3-3.2 0-4.8zM22 9.4c-3.2-2.5-5.2 2.3-5.2-4.5-.1-.6.1-1.5.8-1.6s2.9-.2 2.6 1.2 1.8.2 1.9-.4c.6-3-7.4-1.9-7.3.7s-.4 5.3 4.3 4.7c1.9.2 1.3 2.8 1.3 4s.6 1.7.2 2.2-1 .4-1.5.4c-2.1.5-1.4-1.7-1.4-2.9s-2-.1-2 .5-.7 3.1 1.2 3.3 6.6-.3 5.7-3.1.3-3.2-.6-4.5zm8.7-.1c-.1-1.9-.4-3.7-.4-5.6s-2-.7-2 .2.3 3.6.4 5.4l-3 .2c.2-2.3-.3-4.6-.2-7-3.6-1-1.2 5.3-1.7 7.3s.1 4.3.1 6.5c-.1.3 1.8.1 2-.4s-.6-3.7-.2-5.5a10.7 10.7 0 0 1 3.1 0c0 1.8.5 3.7.1 5.5s1.6.9 1.9.2c.6-2.2-.1-4.5-.1-6.8zm8.5 2.3c-.5-1.4-1.2-2.6-1.8-3.9 1.1-1.8 1.5-4 3-5.5s.3-.5-.1-.5c-2.9.1-3.3 3.8-4.6 5.8-.2.1-.4.4-.3.6a17.1 17.1 0 0 1-1.3 2.3c-.1-2.8-.5-5.5-.6-8.3 0-.6-2-.2-1.9.5.1 3.5.6 6.9.6 10.3-.1.2-.1.3 0 .4s-.7 3.1.5 3.1 1.3-2.4 1.5-3.8a11 11 0 0 0 2-2.8c1 2 1.8 4.2 2.6 6.3s2.3.4 2-.5-1.1-2.7-1.6-4zm10.7-1.5c-.3 1.8 1.4 5.5-1.3 6 0 0-1 0-.7-.2s-.1-3.9 0-5.7c-1.3.4-2.8-.3-4.1 0 .1 1.8 0 3.6 0 5.4s-2 .8-2 .5c.3-3.2-.4-6.6-.2-9.8s3.7-3.5 6.1-3.6 1.8 4.2 2.2 6.2c1.4-.3 1.5 1.1 0 1.2zm-2.8-.9h.8c-.4-1.7.4-4-.6-5.4-3.9-1.2-4.1 2.7-3.6 5.5a12.9 12.9 0 0 1 3.4-.1zM12 3.4c1.9-.3 1-1.6 1.1-2.8s-1.9-.6-2 .2v1.5c0 .1-.1.3.1.4s.4.7.8.7z"/></symbol><symbol viewBox="0 0 50 26" id="svg--icon-arrow-next" xmlns="http://www.w3.org/2000/svg"><path d="M0 11h42.3l-8.1-8.2L37 0l13 13-13 13-2.8-2.8 8.1-8.2H0v-4z"/></symbol><symbol viewBox="0 0 50 26" id="svg--icon-arrow-prev" xmlns="http://www.w3.org/2000/svg"><path d="M50 11H7.7l8.1-8.2L13 0 0 13l13 13 2.8-2.8L7.7 15H50v-4z"/></symbol><symbol viewBox="0 0 34 34" id="svg--icon-clew" xmlns="http://www.w3.org/2000/svg"><path d="M4.4 17 .3 20.1a16.2 16.2 0 0 1 0-6.2zM24.1 1.6a16.5 16.5 0 0 0-15 .4l7.4 5.5zM33.5 13l-4.7 3.7 4.9 3.7a18.5 18.5 0 0 0-.2-7.4zM9.1 32.1a17.2 17.2 0 0 0 15.6.1l-8-6zM7.8 14.3 1.7 9.7a12.1 12.1 0 0 0-.9 2l5.3 3.9zm10.6 10.5 8.2 6.2.8-.6a3.9 3.9 0 0 0 1-.8l-8.3-6.1zm-7.1-13.2L4 6.1a10.9 10.9 0 0 0-1.3 1.7l6.9 5.1zm10.6 10.5 8 6a10.4 10.4 0 0 0 1.2-1.7l-7.5-5.6zM14.8 8.9 7.1 3.2a1 1 0 0 0-.5.4l-1.2.9 7.6 5.7zm10.5 10.5 6.9 5.2.9-2-6.1-4.5zm.9-16.7L.9 22.4a11.9 11.9 0 0 0 .8 2L27.9 4a10.9 10.9 0 0 0-1.7-1.3zm4.2 3.9-.9-1.1L2.8 26.3a4.4 4.4 0 0 0 .8 1.1l.4.6L30.8 7.1a1 1 0 0 0-.4-.5zm1.5 2.3L5.5 29.5l1.7 1.4 25.7-20a12.4 12.4 0 0 0-1-2z"/></symbol><symbol viewBox="0 0 47 27" id="svg--icon-dollar" xmlns="http://www.w3.org/2000/svg"><path d="M43.1 0H3.9A3.9 3.9 0 0 0 0 3.9v19.2A3.9 3.9 0 0 0 3.9 27h39.2a3.9 3.9 0 0 0 3.9-3.9V3.9A3.9 3.9 0 0 0 43.1 0zm-40 24.6V2.7h40.5v21.9zm4.1-4h32.6V6.4H7.2zM23.7 8.2a5.3 5.3 0 0 1 5.3 5.3 5.4 5.4 0 0 1-10.7 0 5.4 5.4 0 0 1 5.4-5.3z"/></symbol><symbol viewBox="0 0 15 28" id="svg--icon-facebook" xmlns="http://www.w3.org/2000/svg"><path d="M11.7 5.3a7.4 7.4 0 0 0 2.7-.3 8.9 8.9 0 0 0 .6-3c-.2 0-.1-.3-.2-.4s-.3-.2-.3-.4C11.5-1 5.5 0 3.6 2.8s-.2 4.8 0 7a17.4 17.4 0 0 1-3.4.5c-.5.8 0 2.4.2 3.3s1.9.7 3.2.7a70.6 70.6 0 0 0 .5 9.3 3 3 0 0 0-.5 1.8c.2 0 .2.1.1.3s.7.2.6.7-.5.2-.4.5v.9a6 6 0 0 0 5-1 1.2 1.2 0 0 0 1.2-.2c.4-3.6 0-8.1-.2-11.8 2.7.2 3.2-.9 3.3-3.3s-1.4-2.1-3.7-2.2c.1-1.1-.3-2.3 0-3.4zm-3.8 4.8a1.6 1.6 0 0 0 .4.7h.2a7.6 7.6 0 0 0 3.1-.3 8.5 8.5 0 0 1-.5 2.5 7.5 7.5 0 0 1-2 .2c-.3.2-.4.5-.6.7s.1.5 0 .8-.1.7-.2.8a41.4 41.4 0 0 0 0 6.1c.1.6-.2 3.4.1 3.9s-.4 0-.8.1l-1.6.5c.3-.5.6-1.4-.2-1.6s1.5-2.5 1-3.6-.5.3-.8.4 0 .2-.1.2 0 .2-.1.2-.1 0 0 0 0-.2.1-.2 0-.2.1-.2V21c.6-1.2 1.6-2.9 1.4-4.3a1.1 1.1 0 0 0-1 .7c-.3-.1.2-.4.1-.7s.6-3.8-.9-1.2c-.4 0-.1-.7-.2-1.1.5-2.3-1.5-1.3-3.2-1.5a2.6 2.6 0 0 1-.1-1.2c1-.1 2.5.2 3.2-.2s0-.2.1-.2-.3-1-.5-1.4a28.1 28.1 0 0 0 .1-3c.2-.1.3-.4.5-.6s.7-1.5.7-2.5-.6-.1-.6.2-.4.5-.5.2.2-.6.3-1c1.9-1.8 5.8-1.7 8-1 0 .6-.3.9-.3 1.5a8.8 8.8 0 0 0-5 1.4c-.6 1.7-.2 3.3-.2 5z"/></symbol><symbol viewBox="0 0 32 37" id="svg--icon-flower" xmlns="http://www.w3.org/2000/svg"><path d="M16 37a16 16 0 0 0 16-15.9A16 16 0 0 0 16 37zM4.6 16.3a4.5 4.5 0 0 0 4.5 4.4 4.4 4.4 0 0 0 2.5-.8v.4a4.4 4.4 0 1 0 8.8 0v-.4a4.4 4.4 0 0 0 2.5.8 4.4 4.4 0 0 0 1.9-8.4 4.4 4.4 0 0 0 2.6-3.9A4.4 4.4 0 0 0 22.9 4a5.2 5.2 0 0 0-2.5.7v-.3a4.4 4.4 0 1 0-8.8 0v.3A4.3 4.3 0 0 0 9.1 4a4.4 4.4 0 0 0-4.5 4.4 4.4 4.4 0 0 0 2.6 3.9 4.4 4.4 0 0 0-2.6 4zM16 7.9a4.4 4.4 0 0 1 4.4 4.4 4.3 4.3 0 0 1-4.4 4.4 4.3 4.3 0 0 1-4.4-4.4A4.4 4.4 0 0 1 16 7.9zM0 21.1A16 16 0 0 0 16 37 16 16 0 0 0 0 21.1z"/></symbol><symbol viewBox="0 0 32 32" id="svg--icon-gift" xmlns="http://www.w3.org/2000/svg"><path d="M2.8 32h12.3V18.3H2.8zM30.4 8.7h-7.1a5.7 5.7 0 0 0 1.3-.8A4.8 4.8 0 0 0 27 4a3.8 3.8 0 0 0-1.3-2.9 4.6 4.6 0 0 0-3-1.1 5.2 5.2 0 0 0-3.2 1.1 9.5 9.5 0 0 0-3.4 4v.2a16.2 16.2 0 0 0-1-1.8 9.5 9.5 0 0 0-2.5-2.4A5.2 5.2 0 0 0 9.3 0a4.4 4.4 0 0 0-3.1 1.3 4.1 4.1 0 0 0-1.4 3.1 4.2 4.2 0 0 0 .6 2.1A6.4 6.4 0 0 0 8 8.7H1.6A1.6 1.6 0 0 0 0 10.3v5.8h15.1V8.7h1.8v7.4H32v-5.8a1.6 1.6 0 0 0-1.6-1.6M8.5 6.4a4.4 4.4 0 0 1-1.2-1.1 1.5 1.5 0 0 1-.2-.9 1.8 1.8 0 0 1 .6-1.5 2.5 2.5 0 0 1 1.6-.6 4.1 4.1 0 0 1 2 .6 9.4 9.4 0 0 1 2.6 3.2 6.8 6.8 0 0 1 .7 2 15 15 0 0 1-6.1-1.7m10.4-1.6a6.6 6.6 0 0 1 1.8-1.9 3.9 3.9 0 0 1 2-.6 2.5 2.5 0 0 1 1.5.5 1.3 1.3 0 0 1 .5 1.2c0 .5-.2 1.2-1.4 2.1a15.7 15.7 0 0 1-6 2.2 10 10 0 0 1 1.6-3.5m-2 27.2h12.3V18.3H16.9z"/></symbol><symbol viewBox="0 0 34 27" id="svg--icon-heart" xmlns="http://www.w3.org/2000/svg"><path d="M34 8.5A8.7 8.7 0 0 0 25 0a9.1 9.1 0 0 0-8 4.6A9.1 9.1 0 0 0 9 0a8.7 8.7 0 0 0-9 8.5C0 17.3 15.1 27 17 27s17-9.6 17-18.5z"/></symbol><symbol viewBox="0 0 27 34" id="svg--icon-htmlacademy" xmlns="http://www.w3.org/2000/svg"><path d="M13.6 0C13.5-.1.2 1.4 0 1.4V26l13.5 8L27 26V1.4zm11.6 25-11.7 7-11.7-7V14.9l11.6 6.9v1.3l-8-4.8v1.3l8.1 4.8v1.3l-8-4.8v1.2l8 4.8 8.1-4.8v-5.2l3.6-2.1zm0-11.6-4.7 2.8-7-4.2v1.2l6 3.6-1 .6-5-2.9v1.2l3.9 2.3-1 .6-2.9-1.7v1.2l1.9 1.2-2 1.1-11.6-6.8 11.6-7zm0-1.2L13.4 5.3 1.8 12.2V3l11.7-1.2L25.2 3z"/></symbol><symbol viewBox="0 0 22 21" id="svg--icon-insta" xmlns="http://www.w3.org/2000/svg"><path d="M22 12c-.2-3.5-.2-6.9-.6-10.4C18-1.1 10 1.3 5.4 0 4 0-.1-.1 0 1.6v.9C.2 4.3.1 6.2.2 8c1.5 3.6-2.4 12.5 3.1 12.8a136.7 136.7 0 0 0 18.1-.2c.9-2.7.5-5.7.6-8.6zM8.8 5.8c1.4-.3 4.2-.7 4.6.9h.1c1 0 1.3.8 2.3.8.1 2.7.9 5.8-1.9 7.8s-4.6.5-7.1-1a6.5 6.5 0 0 1 .5-7.7c.3.1.4 0 .4-.3a.9.9 0 0 0 1.1-.5zM7.2 3.1c-.2-.2-.1-.6-.1-1s.6-.5.1-.6a1.4 1.4 0 0 1 .9 0c.2.6-1.3.7-.1.7a16.1 16.1 0 0 0 0 2.2h-.5c0 .3.3.2.5.2s.1.4.1.6-.7.1-1.1.1.2-1.3.2-2.2zm-.7-1.5c.4 0 .1.7 0 .9s0-.6 0-.9zm.1 1.8a.4.4 0 0 1-.1-.5.7.7 0 0 1 .1.5zm0 1.3c0 .2-.1 0-.1-.1s.1 0 .1.1zm-.1.2c.1 0 0 .3.2.3s-.3.1-.4 0 .1-.1.2-.3zM4.1 3.7c0-.1 0-.2-.1-.2s.1-1.4 0-1.9.8-.1 1.2-.1v1.1h-.4c.7.5.2 1.9.5 2.7a7.6 7.6 0 0 0-1.5.1c.1-.6 0-1.4.6-1.6s-.3.1-.3-.1zm-.6 0c-.2.1-.2-.5 0-.6s.2.5 0 .6zm-.1 1c.1-.3 0-.3.1-.7s.2.8-.1.7zm.2-2c-.2.1-.3-.3-.1-.4s.2.3.1.4zm0-1.1c.1.1 0 .2-.1.3s0-.2-.2-.3.2 0 .3 0zm-.2 3.6c.1 0 .1.4-.1.3a.4.4 0 0 0 .1-.3zm-.7-3.6c0 .2-.4.3-.4 0zm-1 0c0 .3-.3.2-.4.4s.1-.4.4-.4zm-.5.8.7-.6c0-.1.1-.1.1-.2h.2c.1.3-.2.3-.3.5s.1.7 0 1.2-.3.3-.6.2-.1-.6-.1-1.1zm.1 3.2c0-.6-.2-1.8.6-2.1s.2 1.4.5 1.9zm18.5 11a21.9 21.9 0 0 1-.4 2.7c-2.9-.1-6.8.5-9.2 0-.3 0-.3.2-.6.2s.5-.9.2-1.3-.8.8-1.2 1.3a10.9 10.9 0 0 0-1.8.1c1.9-3-.2-2.1-1.1 0h-1c.2-.8 2.5-3.2.8-2.7a9.1 9.1 0 0 0-1.1 1.6c-.7.1-1 .8-1.6 1.2s.1-.3.2-.4-.1-.5.1-.6.8-1.8 1.1-2.7-1.3 1.4-1.7 2.2c-.5-1.3.9-2.9.4-4.1s-.4.1-.4.3-.4-6.5-1-7.7l4.8.2c-4.8 5.9 2.1 12.6 8.5 9.4 3-1.7 4.4-7.4 1.3-9.7 1.1-.1 2.6.1 3.8.1.2 3 .5 6.8-.1 9.9zm.4-11.1-2-.3c1.2-.4 1.4 0 1.3-1.8s-1.2-1.6-2.8-1.5-.9 3.4 1.2 3.1c-2.7.1-5.7-.2-8.6.1a14.5 14.5 0 0 0-.1-3.6h3.2c-.8.6-1.9.9-2.5 1.7 1.4-.3 2.7-2.1 4.3-1.6 3.4.2 7.5-1 6 3.9zm-6-3.6c.1-.1 0-.1 0 0zm0 0a3.5 3.5 0 0 0-1.4.6 3 3 0 0 0 1.4-.6zm1.1.6c.1-.1 0-.1 0 0zm-1.8.9a7.6 7.6 0 0 0 1.8-.9 4.4 4.4 0 0 0-1.8.9zm-.7-.9c-.1.1.1.1 0 0zm-.6.6zm-.1.1a.1.1 0 0 0 .1-.1.1.1 0 0 0-.1.1zm-.1.1zm-.8.6a1.6 1.6 0 0 0 .8-.6 1.2 1.2 0 0 0-.8.6zm2.3 1a6.1 6.1 0 0 0 2.2-1.3 4.5 4.5 0 0 0-2.2 1.3zm-2.3-1c-.4-.1-.1.2 0 0zm-.6.4zm2.9.6c-.1 0 0 .1 0 0zm-1.2 1.8c-1.9-1.1-3.8.3-5.1 1.4l-.6.7c0 .2.1.3-.1.3-.7 5.6 5.4 8.1 8.6 3.8.5-2.3.8-5.2-1.7-6.2a1.4 1.4 0 0 0-1.1 0zm-3.5 4.2c-.1 0-.1-.2-.1-.3s.1.2.1.3zm.1.3c.1-.1.1 0 .1.1s-.1 0-.1-.1zm.5-2h.1c-.1.1-.1.1-.1 0zm1.7-2.1c-.2.3 0 .6.1.8s-.6-.8-.1-.8zm.4 3.9c-.1 0 0-.1 0-.1v.1zm.7 2.9zm2.3-2.6c-.3 0-.2.2-.4.2a.8.8 0 0 1 .2-.5c.1 0 .2.1.2.3zm-1.2-3.7c1.3.5 1.1 1.9 1.2 3.2-1.5.9-3.6-.1-3.2-1.9s1.2-.7.9-1.4.6.1 1.1.1z"/></symbol><symbol viewBox="0 0 55 23" id="svg--icon-rocket" xmlns="http://www.w3.org/2000/svg"><path d="M39 11.5a10.1 10.1 0 0 0 1.9 5.8A47.8 47.8 0 0 1 28.4 19a45.2 45.2 0 0 1-7.8-.7L13.7 23H0l5.9-6.1h8.8a25.6 25.6 0 0 1-7.1-3.5V9.6a22.3 22.3 0 0 1 6.9-3.5H5.9L0 0h13.7l6.9 4.6a57.6 57.6 0 0 1 7.8-.6 47.8 47.8 0 0 1 12.5 1.7 10.1 10.1 0 0 0-1.9 5.8zm5.4-4.8a7.7 7.7 0 0 0-2 4.8 7.7 7.7 0 0 0 2 4.8A47.7 47.7 0 0 0 55 11.5a47.7 47.7 0 0 0-10.6-4.8z"/></symbol><symbol viewBox="0 0 23 20" id="svg--icon-twitter" xmlns="http://www.w3.org/2000/svg"><path d="M23 4.1c-.5-.5-1.8-.4-2.5-.4a4.4 4.4 0 0 0 .7-2.2c.5-.5.7-2-.4-1.3a7 7 0 0 1-2.6 2.2 6.2 6.2 0 0 0-6.9 2l-.5.8c.1.2 0 .3 0 .5s.2.4 0 .5c-2.4-1-5.1-2.1-6.6-4.3-.4-.1-.2-.9-.7-.9s-.4.2-.5.4-.2.3-.4.6-1.1 3.1.1 4.3c-2 .4-.1 2.8.4 3.7s.3.4.5.7-2.3-.4-.9 2.2a6.1 6.1 0 0 0 3.4 1.4c-.2 2.1-8 1-5.7 3.1 0 .2.2.2.4.3 2.7 2.5 6.8 2.1 10.3 2.3a11.1 11.1 0 0 0 6.6-4.8 15.1 15.1 0 0 0 2.4-3.6c0-.4.3-.5.3-.9s.2-.6.4-.8a10.5 10.5 0 0 0-.2-4c.9-.3 2.6-.5 2.4-1.8zm-3.4 4a4.2 4.2 0 0 1-1 2c.1.4-.1.5-.1.9a13.6 13.6 0 0 1-7.2 7.5c-2.8.3-6.3.3-8.8-1.3.2-.2.7-.1 1-.2s.4 0 .4-.2a4.3 4.3 0 0 0 2.9-1.2.5.5 0 0 1 .2-.4c0-.3.2-.5.1-.9s.5-.8 0-1-.4-.1-.4-.2-.9 0-1.1-.2a3.3 3.3 0 0 1-1.8-.7c.4-.2 1-.3 1.3-.7S6.3 10 4.9 10a9.4 9.4 0 0 1-1.8-2.5c.2-.1.6-.2.7-.4 1.6-.4-.1-1.5-.5-2.1a17.6 17.6 0 0 1 0-2.3c1.2 1.8 5.9 5.4 8.2 4.5-.3-3.3 4.1-5.1 6.7-3.6s1.5 2.8 1.4 4.5zm.3-5.6c-.1.4-.2.7-.6.8s.3-.6.6-.8.1 0 0 0zm-5.4 3 .5.4c.1.2.4.3.6.4s.4-.1.4-.3.2-.2.3-.3c.3-1.6-2.1-2.1-1.8-.2z"/></symbol><symbol viewBox="0 0 20 31" id="svg--interior" xmlns="http://www.w3.org/2000/svg"><path d="M7.5 18.9a3.8 3.8 0 0 0 .1 1.8c.2 1.3.8 3 1.1 4.8h2.6c.3-1.8.9-3.5 1.2-4.8a5.3 5.3 0 0 0 0-1.8c-.1-.5-.4-.8-1-1.2h-3a2.8 2.8 0 0 0-1 1.2zm5.9 9.9H6.6a1.1 1.1 0 0 0-1.2 1.1V31h9.2v-1.1a1.1 1.1 0 0 0-1.2-1.1zM17 1.1h-5.9a1.1 1.1 0 0 0-2.2 0H3L0 13.8a2.9 2.9 0 0 1 1.3-.5 2.4 2.4 0 0 1 1.5.7c.3.2.5.4.7.4a1.3 1.3 0 0 0 .7-.4 2.1 2.1 0 0 1 1.5-.7 2.1 2.1 0 0 1 1.4.7l.7.4h.3l.4-.3a3.3 3.3 0 0 1 1-.6h.5a2.4 2.4 0 0 1 1.5.7c.3.2.5.4.7.4l.7-.4a2.1 2.1 0 0 1 1.4-.7 2.1 2.1 0 0 1 1.5.7l.4.3h.3c.2 0 .4-.2.7-.4a2.4 2.4 0 0 1 1.5-.7 2.1 2.1 0 0 1 1.3.5zm-5.3 25.5H8.3a.6.6 0 0 0-.6.5.6.6 0 0 0 .6.6h3.4a.6.6 0 0 0 .6-.6.6.6 0 0 0-.6-.5z"/><path d="M10 14.4h-.3l-.3.2v1.9h1.2v-1.8z"/></symbol><symbol viewBox="0 0 32 21" id="svg--mail" xmlns="http://www.w3.org/2000/svg"><path d="M28 0H4a4 4 0 0 0-4 4v13a4 4 0 0 0 4 4h24a4 4 0 0 0 4-4V4a4 4 0 0 0-4-4zM2 5.2l7 5.3-7 5.3zM30 17a2 2 0 0 1-2 2H4a2 2 0 0 1-2-2l7.8-5.9 4.4 3.3a3 3 0 0 0 3.6 0l4.4-3.3L30 17zm0-1.2-7-5.3 7-5.3zm-12.8-2.2a1.9 1.9 0 0 1-1.2.4 1.7 1.7 0 0 1-1.2-.4l-4.1-3.1-.9-.6L2 4a2 2 0 0 1 2-2h24a2 2 0 0 1 2 2z" fill="#333"/></symbol><symbol viewBox="0 0 32 21" id="svg--mail--hover" xmlns="http://www.w3.org/2000/svg"><path d="M28 0H4a4 4 0 0 0-4 4v13a4 4 0 0 0 4 4h24a4 4 0 0 0 4-4V4a4 4 0 0 0-4-4zM2 5.2l7 5.3-7 5.3zM30 17a2 2 0 0 1-2 2H4a2 2 0 0 1-2-2l7.8-5.9 4.4 3.3a3 3 0 0 0 3.6 0l4.4-3.3L30 17zm0-1.2-7-5.3 7-5.3zm-12.8-2.2a1.9 1.9 0 0 1-1.2.4 1.7 1.7 0 0 1-1.2-.4l-4.1-3.1-.9-.6L2 4a2 2 0 0 1 2-2h24a2 2 0 0 1 2 2z" fill="#62d1ba"/></symbol><symbol viewBox="0 0 149 72" id="svg--mishka-logo-desktop" xmlns="http://www.w3.org/2000/svg"><path d="M121.6 36.5c-2.8.3-5.8-.4-8.5.1-.9-5.5-.5-13.4 7.2-11 2 2.9.5 7.5 1.3 10.9zm17.7-.4c-1 4.4-.9 9.7-2.5 13.7a67.4 67.4 0 0 1-3 8.6c.6-.1 1.3.5.6 1-6.4 4.4-15.3 2.2-22.4 1.4-4-.5-8.4 0-12.2-1.1-2.1-.5-4.8.3-6.5-1.1-15.8-.7-31.9 1.9-47.4 1.5-3.7.1-7.5.1-11.2 0a26.8 26.8 0 0 0-2.1 4.9c-4.9 3.1-1.7-2.6-.7-4.6-3.8.3-7.9.8-11.1-.9.4 1.3-6.1 5.8-5 2.5 1.4-1 2.5-3.1 4.4-2.9-1.1-.8-4.5-3.5-1.4-4.3.8-7.6-3.1-16-1-23.4.3-1.6-.5-4.1 1-5.1v-1.2a8.4 8.4 0 0 1-.4-4.7c-2.7 1.1-4.8-2.4-7.3-3.1-1-.5 1.6-1.6 2.3-1.2a42.5 42.5 0 0 1 5.4 3.2 4.3 4.3 0 0 1 2.1-2.3c2.5-3.7 16.5 1.4 21.5-1-8.1-16.6 15.7-18.2 19-3.9 2.5-1.6 2.4 1.2 3 2.7l1.6-.2c-.4-1.4-.3-2.5 1.6-2.7a2.5 2.5 0 0 1 .9-.4 10.5 10.5 0 0 1-.5-1.9c-.4-1.3 2.5-2.1 2.8-.7a27.6 27.6 0 0 0 .8 2.7c3.1-1.2 1.9 2.9 2.8 4.5h.5c-.5-.9 1.3-1.9 2.2-1.3s-.1-1.1.4-1.4c-2.9 1.2-2.6-3.1-3.1-4.8s2.6-2.2 2.8-.8 1.6 3.9.6 5.3c1.9-.8 2.4.9 2.2 2.4h.2a48.7 48.7 0 0 1-.2-5.4c0-1 2.9-1.6 2.9-.7v3.9c1.5-.4 1.4.8.1 1.1l.3 1.9c.6-.1 1.3 0 1.3.4h1.1v-.4c-1.4.2-1-1.2 0-1.5v-1.5c.5-1 3.5-1.5 2.8.2l.5.2c0-.2.2-.3.5-.4a24.7 24.7 0 0 1 1.1-3.6c.3-.9 3-1.2 2.8-.5-1 2.3-1.2 5-2.3 7.2v.3h.2c.3-1.5 1.8-3.5 3.3-2.2 1.2-17.7 30-21.8 20.4.1 1 .2 6.4-1.6 5.7.2 2-.1 4.1-.1 6.1 0s2.3-3.3 4.1-2.6.2 1-.2 1.2a4 4 0 0 0-1.3 1.8 14.3 14.3 0 0 1 2.8.7c.6.2 2.5.6 1.8 1.5s.4.6.5 1l.5.4c6.3-2 3.4 11.6 4.4 15.1a44.8 44.8 0 0 0 4.7-2.8c6.7-1-3.2 4.4-4.8 5zM44.6 47.2c-.4-7.2.3-14.8-.8-22 1.3-2.5-5-1.1-4 .9a85.7 85.7 0 0 1-3.9 13.1c-2.4-4.4-3.7-9.3-6-13.7.2-1.6-3.2-1.4-3.9 0-1.4 7.6.7 15.7.3 23.5-.6.6-.1 1.5.5 1.9 6.6 2.4 2.2-11.5 3.1-15 1.2 3.4 3.4 6.4 4.2 9.9-1.3 2.5 4.9 1.2 4-.8.9-2.7 1.1-5.6 2.3-8.1.6 4.5-.2 9.4.7 13.9-1.5 2 2.4 1.8 3.2.7s.6-2.9.3-4.3zm6.8-23.1c1.7-1.1-.2-3.1.3-4.8s-3.8-1.3-4 .4a15.1 15.1 0 0 0 .2 3 .7.7 0 0 0 0 .9v.5c.6 1.3 2.7.8 3.5 0zm.9 10.5a54.3 54.3 0 0 0-.1-7c-.2-.7-4.1.1-4 1.1 0 7.4 1.5 15 1.1 22.2.2 1 3.4.1 3.9-.7.6-5-.4-10.5-.9-15.6zm18.5 11.5c-.4-9.6.4-10.8-9.9-10.5-2.5-1.4-.9-5.3-1.6-7.6s.1-3.1 1.5-3.3 5.7-.3 5.2 2.4c-.3 1 3.6.5 3.9-.6 1.1-6.2-14.9-4.1-14.6 1.3.6 7.7-1.1 10.7 8.4 9.5 3.9.3 2.8 5.6 2.8 8s1.2 3.5.2 4.6a4.5 4.5 0 0 1-2.8.7c-4.2 1.1-2.9-3.4-2.9-5.9-.1-.9-4.1-.1-3.9 1 .3 2.7-1.4 6.2 2.4 6.7s7.9-.4 10.8-2.7c1.1-1 .7-2.4.5-3.6zm15.5-20.5c0-2-4-1.4-3.9.3 0 3.7.5 7.4.6 11.1l-5.9.2c.2-4.6-.6-9.3-.4-13.9 0-.6-3.9-.1-3.9 1 0 6.7.7 13.3.1 20-.1 2.2 1 4.5.6 6.6s3.6.3 3.9-.7c.5-3.6-1.1-7.4-.4-11.2a32.1 32.1 0 0 1 6.2 0c.1 3.7 1 7.6.3 11.2-.8 2.1 3.2 1.9 3.7.4 1.4-8.2-1-16.8-.9-25zm2.4-9.5a2.9 2.9 0 0 0 .2-.9c0 .1 0 .1-.1 0s-.1.7-.2 1zm18.6 33.5a126 126 0 0 0-6.8-16c2.3-3.5 3.1-8.1 6.1-11.1.5-.4.5-.9-.3-.9-5.8.2-6.6 7.7-9.2 11.6a1.1 1.1 0 0 0-.6 1.3 41.7 41.7 0 0 1-2.6 4.6c-.3-5.6-.9-11.1-1.1-16.7-.1-1.3-4-.5-4 1 .3 7 1.3 13.9 1.3 20.8-.3.3-.3.6 0 .7.6 1.7-1.5 6.4.9 6.4 4.3.3 2.8-5 3.1-7.7a33 33 0 0 0 4.1-5.7c2 4.1 3.5 8.5 5.1 12.7.6 1.8 4.5.8 4-1zM125.6 36c-.9-4 1.8-12.7-4.5-12.4-4.8.2-11.4 1.3-12.1 7.2s.9 13.3.4 19.9c0 .6 4 0 4-1 0-3.7.1-7.3-.1-10.9 2.6-.8 5.7.7 8.3-.2-.3 3.8 1.1 8.1-.1 11.6-.5.5 1.5.3 1.6.3 5.3-.8 1.8-8.3 2.5-12 3-.2 2.9-3 0-2.5zM64.2 12.3c.7.6 3 .1 2.6-1s-.6-1.2-1-1.8-3 0-2.6 1.1a15.1 15.1 0 0 0 1 1.7zm-42.6-1.7c.5 1.2 3 .5 2.8-.7a3.8 3.8 0 0 0-.9-1.8c-.7-.9-3.2-.1-2.6 1.2a3.3 3.3 0 0 1 .7 1.3zm10 3c.8 0 3-1.3 1.1-1.3s-3 1.3-1.1 1.3zm91.9-1.6c1.2.3 3.2-1 2.9-2.3a2 2 0 0 0-2.6.5c-.3.6-1.6 1.5-.3 1.8zm13.3 5.4c1.2.4 7.7-5.2 4.4-4.5s-3.2 3-5.1 4.1.4.4.7.4zm10.8 27.1c-1.9.4-5.3-1.1-6.4 1.1.8 2 4.4.5 6.2.9s2.2-2.2.2-2zm-89.7 16c-2.3.1-2.3 3-3 4.7s2.6.4 2.8-.4 2.7-4.7.2-4.3zm4.6 2.6c-1.1 0-2.4.3-2.5 1.5.1.9 2.1.1 2.7-.3s.5-1.3-.2-1.2zm55.1 3.7c-.4-.7-3.1.3-2.9.7 1.3 2 3.1 7 5.8 3.9a44.3 44.3 0 0 1-2.9-4.6zm4-2.4c-.5-1-2.9-.4-2.8.8s1 3.4 2.8 2.7.6-2.2 0-3.5zM6.6 42.8c-1.7.8-5.3.1-5.7 2.3 1.4 1.6 4.3-.4 6.2-.4s1.3-2.4-.5-1.9z"/></symbol><symbol viewBox="0 0 149 72" id="svg--mishka-logo-desktop--dark" xmlns="http://www.w3.org/2000/svg"><path fill="#fff" d="M121.6 36.5c-2.8.3-5.8-.4-8.5.1-.9-5.5-.5-13.4 7.2-11 2 2.9.5 7.5 1.3 10.9zm17.7-.4c-1 4.4-.9 9.7-2.5 13.7a67.4 67.4 0 0 1-3 8.6c.6-.1 1.3.5.6 1-6.4 4.4-15.3 2.2-22.4 1.4-4-.5-8.4 0-12.2-1.1-2.1-.5-4.8.3-6.5-1.1-15.8-.7-31.9 1.9-47.4 1.5-3.7.1-7.5.1-11.2 0a26.8 26.8 0 0 0-2.1 4.9c-4.9 3.1-1.7-2.6-.7-4.6-3.8.3-7.9.8-11.1-.9.4 1.3-6.1 5.8-5 2.5 1.4-1 2.5-3.1 4.4-2.9-1.1-.8-4.5-3.5-1.4-4.3.8-7.6-3.1-16-1-23.4.3-1.6-.5-4.1 1-5.1v-1.2a8.4 8.4 0 0 1-.4-4.7c-2.7 1.1-4.8-2.4-7.3-3.1-1-.5 1.6-1.6 2.3-1.2a42.5 42.5 0 0 1 5.4 3.2 4.3 4.3 0 0 1 2.1-2.3c2.5-3.7 16.5 1.4 21.5-1-8.1-16.6 15.7-18.2 19-3.9 2.5-1.6 2.4 1.2 3 2.7l1.6-.2c-.4-1.4-.3-2.5 1.6-2.7a2.5 2.5 0 0 1 .9-.4 10.5 10.5 0 0 1-.5-1.9c-.4-1.3 2.5-2.1 2.8-.7a27.6 27.6 0 0 0 .8 2.7c3.1-1.2 1.9 2.9 2.8 4.5h.5c-.5-.9 1.3-1.9 2.2-1.3s-.1-1.1.4-1.4c-2.9 1.2-2.6-3.1-3.1-4.8s2.6-2.2 2.8-.8 1.6 3.9.6 5.3c1.9-.8 2.4.9 2.2 2.4h.2a48.7 48.7 0 0 1-.2-5.4c0-1 2.9-1.6 2.9-.7v3.9c1.5-.4 1.4.8.1 1.1l.3 1.9c.6-.1 1.3 0 1.3.4h1.1v-.4c-1.4.2-1-1.2 0-1.5v-1.5c.5-1 3.5-1.5 2.8.2l.5.2c0-.2.2-.3.5-.4a24.7 24.7 0 0 1 1.1-3.6c.3-.9 3-1.2 2.8-.5-1 2.3-1.2 5-2.3 7.2v.3h.2c.3-1.5 1.8-3.5 3.3-2.2 1.2-17.7 30-21.8 20.4.1 1 .2 6.4-1.6 5.7.2 2-.1 4.1-.1 6.1 0s2.3-3.3 4.1-2.6.2 1-.2 1.2a4 4 0 0 0-1.3 1.8 14.3 14.3 0 0 1 2.8.7c.6.2 2.5.6 1.8 1.5s.4.6.5 1l.5.4c6.3-2 3.4 11.6 4.4 15.1a44.8 44.8 0 0 0 4.7-2.8c6.7-1-3.2 4.4-4.8 5zM44.6 47.2c-.4-7.2.3-14.8-.8-22 1.3-2.5-5-1.1-4 .9a85.7 85.7 0 0 1-3.9 13.1c-2.4-4.4-3.7-9.3-6-13.7.2-1.6-3.2-1.4-3.9 0-1.4 7.6.7 15.7.3 23.5-.6.6-.1 1.5.5 1.9 6.6 2.4 2.2-11.5 3.1-15 1.2 3.4 3.4 6.4 4.2 9.9-1.3 2.5 4.9 1.2 4-.8.9-2.7 1.1-5.6 2.3-8.1.6 4.5-.2 9.4.7 13.9-1.5 2 2.4 1.8 3.2.7s.6-2.9.3-4.3zm6.8-23.1c1.7-1.1-.2-3.1.3-4.8s-3.8-1.3-4 .4a15.1 15.1 0 0 0 .2 3 .7.7 0 0 0 0 .9v.5c.6 1.3 2.7.8 3.5 0zm.9 10.5a54.3 54.3 0 0 0-.1-7c-.2-.7-4.1.1-4 1.1 0 7.4 1.5 15 1.1 22.2.2 1 3.4.1 3.9-.7.6-5-.4-10.5-.9-15.6zm18.5 11.5c-.4-9.6.4-10.8-9.9-10.5-2.5-1.4-.9-5.3-1.6-7.6s.1-3.1 1.5-3.3 5.7-.3 5.2 2.4c-.3 1 3.6.5 3.9-.6 1.1-6.2-14.9-4.1-14.6 1.3.6 7.7-1.1 10.7 8.4 9.5 3.9.3 2.8 5.6 2.8 8s1.2 3.5.2 4.6a4.5 4.5 0 0 1-2.8.7c-4.2 1.1-2.9-3.4-2.9-5.9-.1-.9-4.1-.1-3.9 1 .3 2.7-1.4 6.2 2.4 6.7s7.9-.4 10.8-2.7c1.1-1 .7-2.4.5-3.6zm15.5-20.5c0-2-4-1.4-3.9.3 0 3.7.5 7.4.6 11.1l-5.9.2c.2-4.6-.6-9.3-.4-13.9 0-.6-3.9-.1-3.9 1 0 6.7.7 13.3.1 20-.1 2.2 1 4.5.6 6.6s3.6.3 3.9-.7c.5-3.6-1.1-7.4-.4-11.2a32.1 32.1 0 0 1 6.2 0c.1 3.7 1 7.6.3 11.2-.8 2.1 3.2 1.9 3.7.4 1.4-8.2-1-16.8-.9-25zm2.4-9.5a2.9 2.9 0 0 0 .2-.9c0 .1 0 .1-.1 0s-.1.7-.2 1zm18.6 33.5a126 126 0 0 0-6.8-16c2.3-3.5 3.1-8.1 6.1-11.1.5-.4.5-.9-.3-.9-5.8.2-6.6 7.7-9.2 11.6a1.1 1.1 0 0 0-.6 1.3 41.7 41.7 0 0 1-2.6 4.6c-.3-5.6-.9-11.1-1.1-16.7-.1-1.3-4-.5-4 1 .3 7 1.3 13.9 1.3 20.8-.3.3-.3.6 0 .7.6 1.7-1.5 6.4.9 6.4 4.3.3 2.8-5 3.1-7.7a33 33 0 0 0 4.1-5.7c2 4.1 3.5 8.5 5.1 12.7.6 1.8 4.5.8 4-1zM125.6 36c-.9-4 1.8-12.7-4.5-12.4-4.8.2-11.4 1.3-12.1 7.2s.9 13.3.4 19.9c0 .6 4 0 4-1 0-3.7.1-7.3-.1-10.9 2.6-.8 5.7.7 8.3-.2-.3 3.8 1.1 8.1-.1 11.6-.5.5 1.5.3 1.6.3 5.3-.8 1.8-8.3 2.5-12 3-.2 2.9-3 0-2.5zM64.2 12.3c.7.6 3 .1 2.6-1s-.6-1.2-1-1.8-3 0-2.6 1.1a15.1 15.1 0 0 0 1 1.7zm-42.6-1.7c.5 1.2 3 .5 2.8-.7a3.8 3.8 0 0 0-.9-1.8c-.7-.9-3.2-.1-2.6 1.2a3.3 3.3 0 0 1 .7 1.3zm10 3c.8 0 3-1.3 1.1-1.3s-3 1.3-1.1 1.3zm91.9-1.6c1.2.3 3.2-1 2.9-2.3a2 2 0 0 0-2.6.5c-.3.6-1.6 1.5-.3 1.8zm13.3 5.4c1.2.4 7.7-5.2 4.4-4.5s-3.2 3-5.1 4.1.4.4.7.4zm10.8 27.1c-1.9.4-5.3-1.1-6.4 1.1.8 2 4.4.5 6.2.9s2.2-2.2.2-2zm-89.7 16c-2.3.1-2.3 3-3 4.7s2.6.4 2.8-.4 2.7-4.7.2-4.3zm4.6 2.6c-1.1 0-2.4.3-2.5 1.5.1.9 2.1.1 2.7-.3s.5-1.3-.2-1.2zm55.1 3.7c-.4-.7-3.1.3-2.9.7 1.3 2 3.1 7 5.8 3.9a44.3 44.3 0 0 1-2.9-4.6zm4-2.4c-.5-1-2.9-.4-2.8.8s1 3.4 2.8 2.7.6-2.2 0-3.5zM6.6 42.8c-1.7.8-5.3.1-5.7 2.3 1.4 1.6 4.3-.4 6.2-.4s1.3-2.4-.5-1.9z"/></symbol><symbol viewBox="0 0 86 35" id="svg--mishka-logo-mobile" xmlns="http://www.w3.org/2000/svg"><path d="M1.2 27.3c-.6-.4-1-1.1-.4-1.6C1 19.2-.7 12.4.5 6.1 1 4.9 3.9 4.8 3.7 6c2 3.7 3 7.8 5 11.5A62 62 0 0 0 12 6.6c-.9-1.7 4.4-2.9 3.3-.8.9 6 .4 12.3.7 18.4.9 2 0 4.7-2.6 4.2-.7-.2-.8-.7-.3-1.2-.8-3.8-.1-7.8-.6-11.7-1 2.2-1.1 4.6-1.9 6.8.8 1.7-4.4 2.8-3.4.7-.7-2.9-2.5-5.4-3.5-8.2-.7 3 3 14.3-2.5 12.5zM22.3 7.8c-.1-.6-3.4.1-3.3.9.4 3.5-.1 6.9.8 10.3s.6 5.7.2 8.3c-.4.4 1.2.3 1.3.3 2.1-.1 2.5-2 2-3.7-.3-5.4-.8-10.7-1-16.1zm3.1 6.7c.9 2.5 4.7 1.3 6.6 1.4s2.3 4.7 2.3 6.7 1 2.9.2 3.8c-5.1 1.9-5.4.4-4.8-4.3-.1-.8-3.4-.1-3.3.9s-1.2 5.1 2 5.5 10.9-.4 9.4-5.3c-.5-2.4.6-5.3-1-7.4-5.2-4.2-8.7 3.6-8.6-7.7-.1-1 .2-2.5 1.3-2.7s4.8-.2 4.3 2 3.1.4 3.3-.5C38 1.7 24.7 3.5 24.9 8c.3 2.1.1 4.3.5 6.5zm14.5 1.8c-.5 3.7.1 7.4.2 11-.2.6 3 .2 3.3-.6.4-3.1-1-6.2-.3-9.3a21.8 21.8 0 0 1 5.1-.1c.1 3.1.8 6.3.3 9.4s2.6 1.6 3.1.3c1.1-6.9-.9-14-.8-20.9 0-1.7-3.3-1.1-3.3.3 0 3.1.4 6.2.6 9.2l-4.9.3c.1-4-.5-7.8-.4-11.7-6.2-1.6-2 8.7-2.9 12.1zM54 21.7c-.3.3-.2.4 0 .5s-1.3 5.2.7 5.4c3.6.3 2.3-4.1 2.6-6.4a32.1 32.1 0 0 0 3.4-4.8A106.9 106.9 0 0 1 65 27c.5 1.5 3.8.6 3.3-.9a110.2 110.2 0 0 0-5.6-13.3c1.8-2.9 2.5-6.7 5-9.2.5-.4.5-.8-.2-.8-4.8.1-5.5 6.4-7.7 9.7a.9.9 0 0 0-.5 1q-1 2.1-2.1 3.9c-.3-4.6-.8-9.3-1-14 0-1-3.3-.4-3.3.9.2 5.8 1 11.6 1.1 17.4zm29.6-4.8C83 20 85.9 26.2 81.5 27c-.1 0-1.7.1-1.3-.3 1-2.9-.2-6.6.1-9.7-2.2.7-4.8-.5-7 .1-.4 3.2 2.2 11.6-3.2 10 .4-5.5-.7-11.1-.4-16.6s6.1-5.8 10.2-6 3 7 3.7 10.3c2.4-.4 2.5 1.9 0 2.1zm-3.3-1.6c-.7-2.9.6-6.7-1.1-9.2-6.4-1.9-6.8 4.6-6 9.3 2.2-.5 4.7.1 7.1-.1zM18.6 4c0 .2 0 .4.2.5s2.2 1.2 2.9.4-.2-2.6.3-4-3.2-1.1-3.4.3a20.9 20.9 0 0 0 .1 2.5.4.4 0 0 1-.1.3zm61.6 29.2c-12.8-2.8-26.1.1-39.1-.9s-26.4-1.7-39.2 1.8c26 .5 52.5 1.9 78.4-.8v-.5a.6.6 0 0 0-.1.4z"/></symbol><symbol viewBox="0 0 86 35" id="svg--mishka-logo-mobile--dark" xmlns="http://www.w3.org/2000/svg"><path fill="#fff" d="M1.2 27.3c-.6-.4-1-1.1-.4-1.6C1 19.2-.7 12.4.5 6.1 1 4.9 3.9 4.8 3.7 6c2 3.7 3 7.8 5 11.5A62 62 0 0 0 12 6.6c-.9-1.7 4.4-2.9 3.3-.8.9 6 .4 12.3.7 18.4.9 2 0 4.7-2.6 4.2-.7-.2-.8-.7-.3-1.2-.8-3.8-.1-7.8-.6-11.7-1 2.2-1.1 4.6-1.9 6.8.8 1.7-4.4 2.8-3.4.7-.7-2.9-2.5-5.4-3.5-8.2-.7 3 3 14.3-2.5 12.5zM22.3 7.8c-.1-.6-3.4.1-3.3.9.4 3.5-.1 6.9.8 10.3s.6 5.7.2 8.3c-.4.4 1.2.3 1.3.3 2.1-.1 2.5-2 2-3.7-.3-5.4-.8-10.7-1-16.1zm3.1 6.7c.9 2.5 4.7 1.3 6.6 1.4s2.3 4.7 2.3 6.7 1 2.9.2 3.8c-5.1 1.9-5.4.4-4.8-4.3-.1-.8-3.4-.1-3.3.9s-1.2 5.1 2 5.5 10.9-.4 9.4-5.3c-.5-2.4.6-5.3-1-7.4-5.2-4.2-8.7 3.6-8.6-7.7-.1-1 .2-2.5 1.3-2.7s4.8-.2 4.3 2 3.1.4 3.3-.5C38 1.7 24.7 3.5 24.9 8c.3 2.1.1 4.3.5 6.5zm14.5 1.8c-.5 3.7.1 7.4.2 11-.2.6 3 .2 3.3-.6.4-3.1-1-6.2-.3-9.3a21.8 21.8 0 0 1 5.1-.1c.1 3.1.8 6.3.3 9.4s2.6 1.6 3.1.3c1.1-6.9-.9-14-.8-20.9 0-1.7-3.3-1.1-3.3.3 0 3.1.4 6.2.6 9.2l-4.9.3c.1-4-.5-7.8-.4-11.7-6.2-1.6-2 8.7-2.9 12.1zM54 21.7c-.3.3-.2.4 0 .5s-1.3 5.2.7 5.4c3.6.3 2.3-4.1 2.6-6.4a32.1 32.1 0 0 0 3.4-4.8A106.9 106.9 0 0 1 65 27c.5 1.5 3.8.6 3.3-.9a110.2 110.2 0 0 0-5.6-13.3c1.8-2.9 2.5-6.7 5-9.2.5-.4.5-.8-.2-.8-4.8.1-5.5 6.4-7.7 9.7a.9.9 0 0 0-.5 1q-1 2.1-2.1 3.9c-.3-4.6-.8-9.3-1-14 0-1-3.3-.4-3.3.9.2 5.8 1 11.6 1.1 17.4zm29.6-4.8C83 20 85.9 26.2 81.5 27c-.1 0-1.7.1-1.3-.3 1-2.9-.2-6.6.1-9.7-2.2.7-4.8-.5-7 .1-.4 3.2 2.2 11.6-3.2 10 .4-5.5-.7-11.1-.4-16.6s6.1-5.8 10.2-6 3 7 3.7 10.3c2.4-.4 2.5 1.9 0 2.1zm-3.3-1.6c-.7-2.9.6-6.7-1.1-9.2-6.4-1.9-6.8 4.6-6 9.3 2.2-.5 4.7.1 7.1-.1zM18.6 4c0 .2 0 .4.2.5s2.2 1.2 2.9.4-.2-2.6.3-4-3.2-1.1-3.4.3a20.9 20.9 0 0 0 .1 2.5.4.4 0 0 1-.1.3zm61.6 29.2c-12.8-2.8-26.1.1-39.1-.9s-26.4-1.7-39.2 1.8c26 .5 52.5 1.9 78.4-.8v-.5a.6.6 0 0 0-.1.4z"/></symbol><symbol viewBox="0 0 113 46" id="svg--mishka-logo-tablet" xmlns="http://www.w3.org/2000/svg"><path d="M98.8 15.5c0 1.9.2 3.8.3 5.7-2.6.3-5.4-.5-7.9.1-.4-3.7-1.4-10.7 4.1-10.6 3.3-1.3 3.9 2.4 3.5 4.8zm12.1 26.3c-.4-.5-17.3 7.8-20.8 2.2-20.3-2.9-41.1.5-61.5-.3-6.6-.6-16.6 1.8-23-.4-.8-.7-7.1-4.1-3.1-4.9-1.4-9.3-3.8-27.9 1.3-35.1 2.6-3.8 31.3-1.7 37.5-2 12.4-.5 24.9 1.4 37.6.4 5.5-.4 30.2-4.8 32.2 1.7.7 2.5 4.2 39.2-.2 38.4zM26.8 31.3c-.4-6.9.2-14-.8-20.8 1.2-2.3-4.8-1-3.8.9a75.7 75.7 0 0 1-3.7 12.3c-2.2-4.1-3.4-8.7-5.6-12.9.2-1.4-3-1.3-3.7 0-1.3 7.1.7 14.8.4 22.1-.7.6-.2 1.4.4 1.8 6.2 2.2 2.1-10.8 2.9-14.1 1.1 3.2 3.2 6 4 9.3-1.3 2.4 4.6 1.2 3.7-.8.9-2.5 1.1-5.2 2.2-7.6.5 4.3-.2 8.9.6 13.1-.6.6-.4 1.2.4 1.4 2.9.6 3.9-2.4 3-4.7zM30.2 10c1.2.7 3.9-.3 3.6-1.8a8.5 8.5 0 0 1-.4-3.2c-.1-1.9-3.5-1.2-3.7.3a14.1 14.1 0 0 0 .1 2.9 1 1 0 0 0 0 .9 1.1 1.1 0 0 0 .4.9zm4.7 20.9c-.3-6.1-.9-12-1.1-18.1-.1-.7-3.8.1-3.7 1 0 7 1.4 14.1 1.1 20.9-.4.5 1.4.4 1.5.4 2.4-.1 2.9-2.3 2.2-4.2zm16.4-.7c1.1-18.1-10.2-3.9-10.5-13.1.3-2.2-1.6-6.1 1.2-7s5.3-.3 4.8 2.2 3.4.5 3.7-.6c1-5.8-14-3.7-13.7 1.3.5 7.2-.8 10.1 7.9 9 3.7.2 2.6 5.2 2.6 7.4s1.2 3.3.2 4.3-1.8.7-2.6.7c-4 1.1-2.8-3.1-2.7-5.5-.1-.9-3.9-.1-3.7 1s-1.4 5.8 2.2 6.2 12.3-.5 10.6-5.9zm15.9-1.7c-.5-5.8-1-11.7-1.2-17.6 0-1.9-3.8-1.3-3.8.3 0 3.5.5 6.9.7 10.4-1.9 0-3.7.2-5.6.3.2-4.4-.5-8.8-.4-13.2 0-.5-3.7-.1-3.7 1 .4 8.3.2 16.8.7 25-.3.8 3.3.3 3.6-.6.5-3.5-1-7-.3-10.5a28.2 28.2 0 0 1 5.8-.1c.1 3.5 1 7.1.3 10.5s3 1.8 3.5.4.5-4 .4-5.9zm18.5 4.9a140.8 140.8 0 0 0-6.4-15c2.1-3.3 2.9-7.6 5.7-10.4.5-.4.5-.8-.3-.9-5.4.2-6.1 7.2-8.6 11a1.1 1.1 0 0 0-.6 1.2 46.3 46.3 0 0 1-2.4 4.3c-.3-5.2-.9-10.5-1.1-15.7 0-1.2-3.7-.5-3.7 1 .3 6.5 1.2 13 1.2 19.5-.3.3-.2.5 0 .6.6 1.7-1.4 6 .9 6.1 4 .3 2.6-4.7 2.9-7.3a28.5 28.5 0 0 0 3.8-5.3c1.9 3.9 3.3 7.9 4.9 11.9.5 1.8 4.2.7 3.7-1zm19.3-12c-.2-.7-1.3-.8-2.1-.7-.8-3.8 1.7-11.9-4.2-11.6S88 10.3 87.3 15.8s.8 12.5.4 18.7c6 1.9 3.1-7.7 3.6-11.2 2.5-.7 5.4.7 7.9-.1-.4 3.5 1 7.6-.2 10.8-.4.5 1.4.4 1.5.4 5-.9 1.7-7.9 2.4-11.3 1.1-.2 2.3-.9 2.1-1.7z"/></symbol><symbol viewBox="0 0 113 46" id="svg--mishka-logo-tablet--dark" xmlns="http://www.w3.org/2000/svg"><path fill="#fff" d="M98.8 15.5c0 1.9.2 3.8.3 5.7-2.6.3-5.4-.5-7.9.1-.4-3.7-1.4-10.7 4.1-10.6 3.3-1.3 3.9 2.4 3.5 4.8zm12.1 26.3c-.4-.5-17.3 7.8-20.8 2.2-20.3-2.9-41.1.5-61.5-.3-6.6-.6-16.6 1.8-23-.4-.8-.7-7.1-4.1-3.1-4.9-1.4-9.3-3.8-27.9 1.3-35.1 2.6-3.8 31.3-1.7 37.5-2 12.4-.5 24.9 1.4 37.6.4 5.5-.4 30.2-4.8 32.2 1.7.7 2.5 4.2 39.2-.2 38.4zM26.8 31.3c-.4-6.9.2-14-.8-20.8 1.2-2.3-4.8-1-3.8.9a75.7 75.7 0 0 1-3.7 12.3c-2.2-4.1-3.4-8.7-5.6-12.9.2-1.4-3-1.3-3.7 0-1.3 7.1.7 14.8.4 22.1-.7.6-.2 1.4.4 1.8 6.2 2.2 2.1-10.8 2.9-14.1 1.1 3.2 3.2 6 4 9.3-1.3 2.4 4.6 1.2 3.7-.8.9-2.5 1.1-5.2 2.2-7.6.5 4.3-.2 8.9.6 13.1-.6.6-.4 1.2.4 1.4 2.9.6 3.9-2.4 3-4.7zM30.2 10c1.2.7 3.9-.3 3.6-1.8a8.5 8.5 0 0 1-.4-3.2c-.1-1.9-3.5-1.2-3.7.3a14.1 14.1 0 0 0 .1 2.9 1 1 0 0 0 0 .9 1.1 1.1 0 0 0 .4.9zm4.7 20.9c-.3-6.1-.9-12-1.1-18.1-.1-.7-3.8.1-3.7 1 0 7 1.4 14.1 1.1 20.9-.4.5 1.4.4 1.5.4 2.4-.1 2.9-2.3 2.2-4.2zm16.4-.7c1.1-18.1-10.2-3.9-10.5-13.1.3-2.2-1.6-6.1 1.2-7s5.3-.3 4.8 2.2 3.4.5 3.7-.6c1-5.8-14-3.7-13.7 1.3.5 7.2-.8 10.1 7.9 9 3.7.2 2.6 5.2 2.6 7.4s1.2 3.3.2 4.3-1.8.7-2.6.7c-4 1.1-2.8-3.1-2.7-5.5-.1-.9-3.9-.1-3.7 1s-1.4 5.8 2.2 6.2 12.3-.5 10.6-5.9zm15.9-1.7c-.5-5.8-1-11.7-1.2-17.6 0-1.9-3.8-1.3-3.8.3 0 3.5.5 6.9.7 10.4-1.9 0-3.7.2-5.6.3.2-4.4-.5-8.8-.4-13.2 0-.5-3.7-.1-3.7 1 .4 8.3.2 16.8.7 25-.3.8 3.3.3 3.6-.6.5-3.5-1-7-.3-10.5a28.2 28.2 0 0 1 5.8-.1c.1 3.5 1 7.1.3 10.5s3 1.8 3.5.4.5-4 .4-5.9zm18.5 4.9a140.8 140.8 0 0 0-6.4-15c2.1-3.3 2.9-7.6 5.7-10.4.5-.4.5-.8-.3-.9-5.4.2-6.1 7.2-8.6 11a1.1 1.1 0 0 0-.6 1.2 46.3 46.3 0 0 1-2.4 4.3c-.3-5.2-.9-10.5-1.1-15.7 0-1.2-3.7-.5-3.7 1 .3 6.5 1.2 13 1.2 19.5-.3.3-.2.5 0 .6.6 1.7-1.4 6 .9 6.1 4 .3 2.6-4.7 2.9-7.3a28.5 28.5 0 0 0 3.8-5.3c1.9 3.9 3.3 7.9 4.9 11.9.5 1.8 4.2.7 3.7-1zm19.3-12c-.2-.7-1.3-.8-2.1-.7-.8-3.8 1.7-11.9-4.2-11.6S88 10.3 87.3 15.8s.8 12.5.4 18.7c6 1.9 3.1-7.7 3.6-11.2 2.5-.7 5.4.7 7.9-.1-.4 3.5 1 7.6-.2 10.8-.4.5 1.4.4 1.5.4 5-.9 1.7-7.9 2.4-11.3 1.1-.2 2.3-.9 2.1-1.7z"/></symbol><symbol viewBox="0 0 101 77" id="svg--play" xmlns="http://www.w3.org/2000/svg"><path d="M50.7 74.5c-7.9 0-15.2-.3-28.4-.9l-6-.3C4 72.1 3.3 64.6 2.7 49c0-2.1-.1-4.2-.2-6.4s.1-6 .1-9.3c-.1-17.4.8-28.8 12.6-29.6l9.6-.4c12.8-.5 19.2-.8 25.6-.8s12.6.3 25.2.8l10 .4c7.8.1 11.2 7.2 11.7 13.2 2.9 36.4-.2 48.7-3.4 52.7a10.9 10.9 0 0 1-7.8 3.6h-.6c-17.6.8-26.4 1.2-34.7 1.2z" fill="#63d1bb"/><path d="M50.4 5c6.2 0 12.5.3 25.1.8l10 .4h.2c7.7.1 9 9 9.1 10.9 3.1 38.6-.9 48.4-2.8 50.8a8.6 8.6 0 0 1-6.2 2.9h-.5c-17.5.8-26.2 1.2-34.6 1.2s-15.1-.3-28.3-.9l-5.9-.3C7 69.9 5.8 65.5 5.2 48.9c0-2-.1-4.1-.2-6.3s.1-6.2.1-9.3c0-7.1 0-14.5 1.6-19.8s4-7 8.6-7.3l9.7-.4C37.7 5.3 44.1 5 50.4 5m0-5c-7.9 0-15.7.4-35.3 1.2S.8 26.1 0 42.6c.9 17.9-1.1 31.6 16.1 33.2S41.7 77 50.7 77s17.6-.4 35-1.2c2-.3 6.3-.3 10.1-4.6 7.6-9.3 4.9-43.8 4-54.5-.7-7.3-4.9-15.4-14.1-15.5C66 .4 58.2 0 50.4 0z" fill="#fff"/><path fill="#fff" d="M37.8 19.3v38.4l31.5-19.2-31.5-19.2z"/></symbol><symbol viewBox="0 0 9 9" id="svg--search" xmlns="http://www.w3.org/2000/svg">&gt;<path d="M8.8 8 7.1 6.3a4.1 4.1 0 0 0 .8-2.4 4 4 0 0 0-4-3.9A4 4 0 0 0 0 3.9a4 4 0 0 0 3.9 4 4.1 4.1 0 0 0 2.4-.8L8 8.8l.4.2a.6.6 0 0 0 .6-.6c0-.1 0-.2-.2-.4zM1.1 3.9a2.9 2.9 0 0 1 2.8-2.8 2.8 2.8 0 0 1 2.8 2.8 2.7 2.7 0 0 1-2.8 2.8 2.8 2.8 0 0 1-2.8-2.8z"/></symbol><symbol viewBox="0 0 25 24" id="svg--tel" xmlns="http://www.w3.org/2000/svg"><path d="M17.4 24h-1.1a17.8 17.8 0 0 1-11.2-5.7A19.2 19.2 0 0 1 0 6.7V5.4a3.3 3.3 0 0 1 1.1-2.1 4.4 4.4 0 0 1 2.5-1.5 3.4 3.4 0 0 1 2.3 1 6.1 6.1 0 0 1 .7 2.4 8.6 8.6 0 0 1 .5 2.7C7 9.1 5.4 9.6 4.9 10.4a15.8 15.8 0 0 0 7.5 8.2c.9-.4 1.6-1.8 2.8-1.8l1.4.3 1.3.5a5 5 0 0 1 2.4 1.2 3.1 3.1 0 0 1 .6 2.2c-.2 1.2-2.2 2.6-3.5 3zM12.6 1.5a10.8 10.8 0 0 1 10.9 10.6H25A12.2 12.2 0 0 0 12.6 0zm0 7.7v1.5a1.4 1.4 0 0 1 1.4 1.4h1.6a2.9 2.9 0 0 0-3-2.9zm0-3a6 6 0 0 1 6.1 5.9h1.6a7.6 7.6 0 0 0-7.7-7.5z"/></symbol><symbol viewBox="0 0 25 24" id="svg--tel--hover" xmlns="http://www.w3.org/2000/svg"><path d="M17.4 24h-1.1a17.8 17.8 0 0 1-11.2-5.7A19.2 19.2 0 0 1 0 6.7V5.4a3.3 3.3 0 0 1 1.1-2.1 4.4 4.4 0 0 1 2.5-1.5 3.4 3.4 0 0 1 2.3 1 6.1 6.1 0 0 1 .7 2.4 8.6 8.6 0 0 1 .5 2.7C7 9.1 5.4 9.6 4.9 10.4a15.8 15.8 0 0 0 7.5 8.2c.9-.4 1.6-1.8 2.8-1.8l1.4.3 1.3.5a5 5 0 0 1 2.4 1.2 3.1 3.1 0 0 1 .6 2.2c-.2 1.2-2.2 2.6-3.5 3zM12.6 1.5a10.8 10.8 0 0 1 10.9 10.6H25A12.2 12.2 0 0 0 12.6 0zm0 7.7v1.5a1.4 1.4 0 0 1 1.4 1.4h1.6a2.9 2.9 0 0 0-3-2.9zm0-3a6 6 0 0 1 6.1 5.9h1.6a7.6 7.6 0 0 0-7.7-7.5z" fill="#62d1ba"/></symbol><symbol viewBox="0 0 10 10" id="svg--toys" xmlns="http://www.w3.org/2000/svg"><path d="M0 7.3 4.6 10V6.1L0 3.4zm8.6-5.2v.4c0 .3-.6.5-1.3.5S6 2.8 6 2.5v-.7c0 .3.6.5 1.3.5s1.3-.2 1.3-.5-.6-.6-1.3-.6h-.2L6.3.8v.5c0 .3-.6.5-1.3.5l-1.1-.2a.1.1 0 0 0-.1-.1V.8l-.8.4h-.3c-.7 0-1.3.3-1.3.6s.6.5 1.3.5S4 2.1 4 1.8v.7c0 .3-.6.5-1.3.5s-1.3-.2-1.3-.5v-.4l-1 .6L5 5.4l4.6-2.7zM6.3 3.8c0 .3-.6.5-1.3.5s-1.3-.2-1.3-.5v-.7c.1.3.6.5 1.3.5s1.2-.2 1.3-.5v.7zm-.9 2.3V10L10 7.3V3.4zm-.4-5c.7 0 1.3-.2 1.3-.5S5.7 0 5 0 3.7.2 3.7.6s.6.5 1.3.5"/></symbol></svg>