<svg xmlns="http://www.w3.org/2000/svg" viewBox="0 0 25 24"><path d="M17.4 24h-1.1a17.8 17.8 0 01-11.2-5.7A19.2 19.2 0 010 6.7V5.4a3.3 3.3 0 011.1-2.1 4.4 4.4 0 012.5-1.5 3.4 3.4 0 012.3 1 6.1 6.1 0 01.7 2.4 8.6 8.6 0 01.5 2.7C7 9.1 5.4 9.6 4.9 10.4a15.8 15.8 0 007.5 8.2c.9-.4 1.6-1.8 2.8-1.8l1.4.3 1.3.5a5 5 0 012.4 1.2 3.1 3.1 0 01.6 2.2c-.2 1.2-2.2 2.6-3.5 3zM12.6 1.5a10.8 10.8 0 0110.9 10.6H25A12.2 12.2 0 0012.6 0zm0 7.7v1.5a1.4 1.4 0 011.4 1.4h1.6a2.9 2.9 0 00-3-2.9zm0-3a6 6 0 016.1 5.9h1.6a7.6 7.6 0 00-7.7-7.5z"/></svg>