<svg xmlns="http://www.w3.org/2000/svg" viewBox="0 0 10 10"><path d="M0 7.3L4.6 10V6.1L0 3.4zm8.6-5.2v.4c0 .3-.6.5-1.3.5S6 2.8 6 2.5v-.7c0 .3.6.5 1.3.5s1.3-.2 1.3-.5-.6-.6-1.3-.6h-.2L6.3.8v.5c0 .3-.6.5-1.3.5l-1.1-.2a.1.1 0 00-.1-.1V.8l-.8.4h-.3c-.7 0-1.3.3-1.3.6s.6.5 1.3.5S4 2.1 4 1.8v.7c0 .3-.6.5-1.3.5s-1.3-.2-1.3-.5v-.4l-1 .6L5 5.4l4.6-2.7zM6.3 3.8c0 .3-.6.5-1.3.5s-1.3-.2-1.3-.5v-.7c.1.3.6.5 1.3.5s1.2-.2 1.3-.5v.7zm-.9 2.3V10L10 7.3V3.4zm-.4-5c.7 0 1.3-.2 1.3-.5S5.7 0 5 0 3.7.2 3.7.6s.6.5 1.3.5"/></svg>