<svg xmlns="http://www.w3.org/2000/svg" viewBox="0 0 51 17">
  <path d="M9.5,14.4c.5,1.2,0,2.8-1.5,2.5s-.5-.4-.2-.7c-.5-2.2-.1-4.6-.4-6.9a29.8,29.8,0,0,0-1.1,4c.4,1-2.7,1.7-2,.4S2.8,10.5,2.2,8.8c-.4,1.8,1.7,8.6-1.5,7.4-.4-.2-.6-.6-.3-.9C.6,11.4-.4,7.4.2,3.7c.4-.7,2.1-.8,2,0s1.8,4.6,3,6.7A36.1,36.1,0,0,0,7.1,4c-.5-1,2.7-1.7,2-.5C9.6,7.1,9.3,10.8,9.5,14.4Zm4.3-3.3a34.5,34.5,0,0,1-.5-6.4c-.1-.4-2.1.1-2,.5,0,3.7.8,7.5.6,11.1.1.5,1.7,0,1.9-.4S13.5,12.7,13.8,11.1ZM22,9.4c-3.2-2.5-5.2,2.3-5.2-4.5-.1-.6.1-1.5.8-1.6s2.9-.2,2.6,1.2,1.8.2,1.9-.4c.6-3-7.4-1.9-7.3.7s-.4,5.3,4.3,4.7c1.9.2,1.3,2.8,1.3,4s.6,1.7.2,2.2-1,.4-1.5.4c-2.1.5-1.4-1.7-1.4-2.9s-2-.1-2,.5S15,16.8,16.9,17s6.6-.3,5.7-3.1S22.9,10.7,22,9.4Zm8.7-.1c-.1-1.9-.4-3.7-.4-5.6s-2-.7-2,.2.3,3.6.4,5.4l-3,.2c.2-2.3-.3-4.6-.2-7-3.6-1-1.2,5.3-1.7,7.3s.1,4.3.1,6.5c-.1.3,1.8.1,2-.4s-.6-3.7-.2-5.5a10.7,10.7,0,0,1,3.1,0c0,1.8.5,3.7.1,5.5s1.6.9,1.9.2C31.4,13.9,30.7,11.6,30.7,9.3Zm8.5,2.3C38.7,10.2,38,9,37.4,7.7c1.1-1.8,1.5-4,3-5.5s.3-.5-.1-.5c-2.9.1-3.3,3.8-4.6,5.8-.2.1-.4.4-.3.6a17.1,17.1,0,0,1-1.3,2.3c-.1-2.8-.5-5.5-.6-8.3,0-.6-2-.2-1.9.5.1,3.5.6,6.9.6,10.3-.1.2-.1.3,0,.4s-.7,3.1.5,3.1S34,14,34.2,12.6a11,11,0,0,0,2-2.8c1,2,1.8,4.2,2.6,6.3s2.3.4,2-.5S39.7,12.9,39.2,11.6Zm10.7-1.5c-.3,1.8,1.4,5.5-1.3,6,0,0-1,0-.7-.2s-.1-3.9,0-5.7c-1.3.4-2.8-.3-4.1,0,.1,1.8,0,3.6,0,5.4s-2,.8-2,.5c.3-3.2-.4-6.6-.2-9.8s3.7-3.5,6.1-3.6,1.8,4.2,2.2,6.2C51.3,8.6,51.4,10,49.9,10.1Zm-2.8-.9h.8c-.4-1.7.4-4-.6-5.4-3.9-1.2-4.1,2.7-3.6,5.5A12.9,12.9,0,0,1,47.1,9.2ZM12,3.4c1.9-.3,1-1.6,1.1-2.8s-1.9-.6-2,.2V2.3c0,.1-.1.3.1.4S11.6,3.4,12,3.4Z"/>
</svg>
