<svg id="Слой_1" data-name="Слой 1" xmlns="http://www.w3.org/2000/svg" viewBox="0 0 34 34">
  <path d="M4.4,17,.3,20.1a16.2,16.2,0,0,1,0-6.2ZM24.1,1.6A16.5,16.5,0,0,0,9.1,2l7.4,5.5ZM33.5,13l-4.7,3.7,4.9,3.7A18.5,18.5,0,0,0,33.5,13ZM9.1,32.1a17.2,17.2,0,0,0,15.6.1l-8-6ZM7.8,14.3,1.7,9.7a12.1,12.1,0,0,0-.9,2l5.3,3.9ZM18.4,24.8,26.6,31l.8-.6a3.9,3.9,0,0,0,1-.8l-8.3-6.1ZM11.3,11.6,4,6.1A10.9,10.9,0,0,0,2.7,7.8l6.9,5.1ZM21.9,22.1l8,6a10.4,10.4,0,0,0,1.2-1.7l-7.5-5.6ZM14.8,8.9,7.1,3.2a1,1,0,0,0-.5.4l-1.2.9L13,10.2ZM25.3,19.4l6.9,5.2.9-2L27,18.1Zm.9-16.7L.9,22.4a11.9,11.9,0,0,0,.8,2L27.9,4A10.9,10.9,0,0,0,26.2,2.7Zm4.2,3.9-.9-1.1L2.8,26.3a4.4,4.4,0,0,0,.8,1.1L4,28,30.8,7.1A1,1,0,0,0,30.4,6.6Zm1.5,2.3L5.5,29.5l1.7,1.4,25.7-20A12.4,12.4,0,0,0,31.9,8.9Z"/>
</svg>
