<svg id="Слой_1" data-name="Слой 1" xmlns="http://www.w3.org/2000/svg" viewBox="0 0 32 32">
  <path d="M2.8,32H15.1V18.3H2.8ZM30.4,8.7H23.3a5.7,5.7,0,0,0,1.3-.8A4.8,4.8,0,0,0,27,4a3.8,3.8,0,0,0-1.3-2.9,4.6,4.6,0,0,0-3-1.1,5.2,5.2,0,0,0-3.2,1.1,9.5,9.5,0,0,0-3.4,4v.2a16.2,16.2,0,0,0-1-1.8,9.5,9.5,0,0,0-2.5-2.4A5.2,5.2,0,0,0,9.3,0,4.4,4.4,0,0,0,6.2,1.3,4.1,4.1,0,0,0,4.8,4.4a4.2,4.2,0,0,0,.6,2.1A6.4,6.4,0,0,0,8,8.7H1.6A1.6,1.6,0,0,0,0,10.3v5.8H15.1V8.7h1.8v7.4H32V10.3a1.6,1.6,0,0,0-1.6-1.6M8.5,6.4A4.4,4.4,0,0,1,7.3,5.3a1.5,1.5,0,0,1-.2-.9,1.8,1.8,0,0,1,.6-1.5,2.5,2.5,0,0,1,1.6-.6h0a4.1,4.1,0,0,1,2,.6,9.4,9.4,0,0,1,2.6,3.2,6.8,6.8,0,0,1,.7,2A15,15,0,0,1,8.5,6.4M18.9,4.8a6.6,6.6,0,0,1,1.8-1.9,3.9,3.9,0,0,1,2-.6h0a2.5,2.5,0,0,1,1.5.5A1.3,1.3,0,0,1,24.7,4c0,.5-.2,1.2-1.4,2.1a15.7,15.7,0,0,1-6,2.2,10,10,0,0,1,1.6-3.5M16.9,32H29.2V18.3H16.9Z" fill="#231f20"/>
</svg>
