<svg id="Слой_1" data-name="Слой 1" xmlns="http://www.w3.org/2000/svg" viewBox="0 0 32 37">
  <path d="M16,37A16,16,0,0,0,32,21.1,16,16,0,0,0,16,37ZM4.6,16.3a4.5,4.5,0,0,0,4.5,4.4,4.4,4.4,0,0,0,2.5-.8v.4a4.4,4.4,0,1,0,8.8,0v-.4a4.4,4.4,0,0,0,2.5.8,4.4,4.4,0,0,0,1.9-8.4,4.4,4.4,0,0,0,2.6-3.9A4.4,4.4,0,0,0,22.9,4a5.2,5.2,0,0,0-2.5.7V4.4a4.4,4.4,0,1,0-8.8,0v.3A4.3,4.3,0,0,0,9.1,4,4.4,4.4,0,0,0,4.6,8.4a4.4,4.4,0,0,0,2.6,3.9A4.4,4.4,0,0,0,4.6,16.3ZM16,7.9a4.4,4.4,0,0,1,4.4,4.4A4.3,4.3,0,0,1,16,16.7a4.3,4.3,0,0,1-4.4-4.4A4.4,4.4,0,0,1,16,7.9ZM0,21.1A16,16,0,0,0,16,37,16,16,0,0,0,0,21.1Z"/>
</svg>
