<svg id="Слой_1" data-name="Слой 1" xmlns="http://www.w3.org/2000/svg" viewBox="0 0 22 21">
  <path d="M22,12c-.2-3.5-.2-6.9-.6-10.4C18-1.1,10,1.3,5.4,0,4,0-.1-.1,0,1.6v.9C.2,4.3.1,6.2.2,8c1.5,3.6-2.4,12.5,3.1,12.8a136.7,136.7,0,0,0,18.1-.2C22.3,17.9,21.9,14.9,22,12ZM8.8,5.8c1.4-.3,4.2-.7,4.6.9h.1c1,0,1.3.8,2.3.8.1,2.7.9,5.8-1.9,7.8s-4.6.5-7.1-1a6.5,6.5,0,0,1,.5-7.7c.3.1.4,0,.4-.3A.9.9,0,0,0,8.8,5.8ZM7.2,3.1c-.2-.2-.1-.6-.1-1s.6-.5.1-.6a1.4,1.4,0,0,1,.9,0c.2.6-1.3.7-.1.7A16.1,16.1,0,0,0,8,4.4H7.5c0,.3.3.2.5.2s.1.4.1.6-.7.1-1.1.1S7.2,4,7.2,3.1ZM6.5,1.6c.4,0,.1.7,0,.9S6.5,1.9,6.5,1.6Zm.1,1.8a.4.4,0,0,1-.1-.5A.7.7,0,0,1,6.6,3.4Zm0,1.3c0,.2-.1,0-.1-.1S6.6,4.6,6.6,4.7Zm-.1.2c.1,0,0,.3.2.3s-.3.1-.4,0S6.4,5.1,6.5,4.9ZM4.1,3.7c0-.1,0-.2-.1-.2s.1-1.4,0-1.9.8-.1,1.2-.1V2.6H4.8c.7.5.2,1.9.5,2.7a7.6,7.6,0,0,0-1.5.1c.1-.6,0-1.4.6-1.6S4.1,3.9,4.1,3.7Zm-.6,0c-.2.1-.2-.5,0-.6S3.7,3.6,3.5,3.7Zm-.1,1c.1-.3,0-.3.1-.7S3.7,4.8,3.4,4.7Zm.2-2c-.2.1-.3-.3-.1-.4S3.7,2.6,3.6,2.7Zm0-1.1c.1.1,0,.2-.1.3s0-.2-.2-.3S3.5,1.6,3.6,1.6ZM3.4,5.2c.1,0,.1.4-.1.3A.4.4,0,0,0,3.4,5.2ZM2.7,1.6c0,.2-.4.3-.4,0Zm-1,0c0,.3-.3.2-.4.4S1.4,1.6,1.7,1.6Zm-.5.8.7-.6c0-.1.1-.1.1-.2h.2c.1.3-.2.3-.3.5s.1.7,0,1.2-.3.3-.6.2S1.2,2.9,1.2,2.4Zm.1,3.2c0-.6-.2-1.8.6-2.1s.2,1.4.5,1.9Zm18.5,11a21.9,21.9,0,0,1-.4,2.7c-2.9-.1-6.8.5-9.2,0-.3,0-.3.2-.6.2s.5-.9.2-1.3S9,19,8.6,19.5a10.9,10.9,0,0,0-1.8.1c1.9-3-.2-2.1-1.1,0h-1c.2-.8,2.5-3.2.8-2.7a9.1,9.1,0,0,0-1.1,1.6c-.7.1-1,.8-1.6,1.2s.1-.3.2-.4-.1-.5.1-.6.8-1.8,1.1-2.7-1.3,1.4-1.7,2.2c-.5-1.3.9-2.9.4-4.1s-.4.1-.4.3-.4-6.5-1-7.7l4.8.2c-4.8,5.9,2.1,12.6,8.5,9.4,3-1.7,4.4-7.4,1.3-9.7,1.1-.1,2.6.1,3.8.1C20.1,9.7,20.4,13.5,19.8,16.6Zm.4-11.1-2-.3c1.2-.4,1.4,0,1.3-1.8s-1.2-1.6-2.8-1.5S15.8,5.3,17.9,5c-2.7.1-5.7-.2-8.6.1a14.5,14.5,0,0,0-.1-3.6h3.2c-.8.6-1.9.9-2.5,1.7,1.4-.3,2.7-2.1,4.3-1.6C17.6,1.8,21.7.6,20.2,5.5Zm-6-3.6c.1-.1,0-.1,0,0Zm0,0a3.5,3.5,0,0,0-1.4.6A3,3,0,0,0,14.2,1.9Zm1.1.6c.1-.1,0-.1,0,0Zm-1.8.9a7.6,7.6,0,0,0,1.8-.9A4.4,4.4,0,0,0,13.5,3.4Zm-.7-.9c-.1.1.1.1,0,0Zm-.6.6Zm-.1.1a.1.1,0,0,0,.1-.1A.1.1,0,0,0,12.1,3.2Zm-.1.1h0Zm-.8.6a1.6,1.6,0,0,0,.8-.6A1.2,1.2,0,0,0,11.2,3.9Zm2.3,1a6.1,6.1,0,0,0,2.2-1.3A4.5,4.5,0,0,0,13.5,4.9Zm-2.3-1c-.4-.1-.1.2,0,0Zm-.6.4h0Zm2.9.6c-.1,0,0,.1,0,0ZM12.3,6.7C10.4,5.6,8.5,7,7.2,8.1l-.6.7c0,.2.1.3-.1.3-.7,5.6,5.4,8.1,8.6,3.8.5-2.3.8-5.2-1.7-6.2A1.4,1.4,0,0,0,12.3,6.7ZM8.8,10.9c-.1,0-.1-.2-.1-.3S8.8,10.8,8.8,10.9Zm.1.3c.1-.1.1,0,.1.1S8.9,11.3,8.9,11.2Zm.5-2h.1C9.4,9.3,9.4,9.3,9.4,9.2Zm1.7-2.1c-.2.3,0,.6.1.8S10.6,7.1,11.1,7.1Zm.4,3.9c-.1,0,0-.1,0-.1S11.5,11,11.5,11Zm.7,2.9h0Zm2.3-2.6c-.3,0-.2.2-.4.2a.8.8,0,0,1,.2-.5C14.4,11,14.5,11.1,14.5,11.3ZM13.3,7.6c1.3.5,1.1,1.9,1.2,3.2-1.5.9-3.6-.1-3.2-1.9s1.2-.7.9-1.4S12.8,7.6,13.3,7.6Z"/>
</svg>
