<svg id="Слой_1" data-name="Слой 1" xmlns="http://www.w3.org/2000/svg" viewBox="0 0 23 20">
  <path d="M23,4.1c-.5-.5-1.8-.4-2.5-.4a4.4,4.4,0,0,0,.7-2.2c.5-.5.7-2-.4-1.3a7,7,0,0,1-2.6,2.2,6.2,6.2,0,0,0-6.9,2l-.5.8c.1.2,0,.3,0,.5s.2.4,0,.5c-2.4-1-5.1-2.1-6.6-4.3C3.8,1.8,4,1,3.5,1s-.4.2-.5.4-.2.3-.4.6-1.1,3.1.1,4.3c-2,.4-.1,2.8.4,3.7s.3.4.5.7-2.3-.4-.9,2.2a6.1,6.1,0,0,0,3.4,1.4c-.2,2.1-8,1-5.7,3.1,0,.2.2.2.4.3,2.7,2.5,6.8,2.1,10.3,2.3a11.1,11.1,0,0,0,6.6-4.8,15.1,15.1,0,0,0,2.4-3.6c0-.4.3-.5.3-.9s.2-.6.4-.8a10.5,10.5,0,0,0-.2-4C21.5,5.6,23.2,5.4,23,4.1Zm-3.4,4a4.2,4.2,0,0,1-1,2c.1.4-.1.5-.1.9a13.6,13.6,0,0,1-7.2,7.5c-2.8.3-6.3.3-8.8-1.3.2-.2.7-.1,1-.2s.4,0,.4-.2a4.3,4.3,0,0,0,2.9-1.2.5.5,0,0,1,.2-.4c0-.3.2-.5.1-.9s.5-.8,0-1-.4-.1-.4-.2-.9,0-1.1-.2a3.3,3.3,0,0,1-1.8-.7c.4-.2,1-.3,1.3-.7S6.3,10,4.9,10A9.4,9.4,0,0,1,3.1,7.5c.2-.1.6-.2.7-.4,1.6-.4-.1-1.5-.5-2.1a17.6,17.6,0,0,1,0-2.3c1.2,1.8,5.9,5.4,8.2,4.5-.3-3.3,4.1-5.1,6.7-3.6S19.7,6.4,19.6,8.1Zm.3-5.6c-.1.4-.2.7-.6.8s.3-.6.6-.8S20,2.5,19.9,2.5Zm-5.4,3,.5.4c.1.2.4.3.6.4s.4-.1.4-.3.2-.2.3-.3C16.6,4.1,14.2,3.6,14.5,5.5Z"/>
</svg>
