<svg xmlns="http://www.w3.org/2000/svg" viewBox="0 0 15 28">
  <path d="M11.7,5.3A7.4,7.4,0,0,0,14.4,5,8.9,8.9,0,0,0,15,2c-.2,0-.1-.3-.2-.4s-.3-.2-.3-.4C11.5-1,5.5,0,3.6,2.8s-.2,4.8,0,7a17.4,17.4,0,0,1-3.4.5c-.5.8,0,2.4.2,3.3s1.9.7,3.2.7a70.6,70.6,0,0,0,.5,9.3,3,3,0,0,0-.5,1.8c.2,0,.2.1.1.3s.7.2.6.7-.5.2-.4.5v.9a6,6,0,0,0,5-1,1.2,1.2,0,0,0,1.2-.2c.4-3.6,0-8.1-.2-11.8,2.7.2,3.2-.9,3.3-3.3S11.8,9.4,9.5,9.3c.1-1.1-.3-2.3,0-3.4ZM7.9,10.1a1.6,1.6,0,0,0,.4.7h.2a7.6,7.6,0,0,0,3.1-.3,8.5,8.5,0,0,1-.5,2.5,7.5,7.5,0,0,1-2,.2c-.3.2-.4.5-.6.7s.1.5,0,.8-.1.7-.2.8a41.4,41.4,0,0,0,0,6.1c.1.6-.2,3.4.1,3.9s-.4,0-.8.1L6,26.1c.3-.5.6-1.4-.2-1.6s1.5-2.5,1-3.6-.5.3-.8.4,0,.2-.1.2,0,.2-.1.2-.1,0,0,0,0-.2.1-.2,0-.2.1-.2V21c.6-1.2,1.6-2.9,1.4-4.3a1.1,1.1,0,0,0-1,.7c-.3-.1.2-.4.1-.7s.6-3.8-.9-1.2c-.4,0-.1-.7-.2-1.1.5-2.3-1.5-1.3-3.2-1.5a2.6,2.6,0,0,1-.1-1.2c1-.1,2.5.2,3.2-.2s0-.2.1-.2-.3-1-.5-1.4a28.1,28.1,0,0,0,.1-3c.2-.1.3-.4.5-.6s.7-1.5.7-2.5-.6-.1-.6.2-.4.5-.5.2.2-.6.3-1c1.9-1.8,5.8-1.7,8-1,0,.6-.3.9-.3,1.5a8.8,8.8,0,0,0-5,1.4C7.5,6.8,7.9,8.4,7.9,10.1Z"/>
</svg>
