<svg xmlns="http://www.w3.org/2000/svg" viewBox="0 0 20 31"><path d="M7.5,18.9a3.8,3.8,0,0,0,.1,1.8c.2,1.3.8,3,1.1,4.8h2.6c.3-1.8.9-3.5,1.2-4.8a5.3,5.3,0,0,0,0-1.8c-.1-.5-.4-.8-1-1.2h-3A2.8,2.8,0,0,0,7.5,18.9Z"/><path d="M13.4,28.8H6.6a1.1,1.1,0,0,0-1.2,1.1V31h9.2V29.9A1.1,1.1,0,0,0,13.4,28.8Z"/><path d="M17,1.1H11.1a1.1,1.1,0,0,0-2.2,0H3L0,13.8a2.9,2.9,0,0,1,1.3-.5,2.4,2.4,0,0,1,1.5.7c.3.2.5.4.7.4a1.3,1.3,0,0,0,.7-.4,2.1,2.1,0,0,1,1.5-.7,2.1,2.1,0,0,1,1.4.7l.7.4h.3l.4-.3a3.3,3.3,0,0,1,1-.6H10a2.4,2.4,0,0,1,1.5.7c.3.2.5.4.7.4l.7-.4a2.1,2.1,0,0,1,1.4-.7,2.1,2.1,0,0,1,1.5.7l.4.3h.3c.2,0,.4-.2.7-.4a2.4,2.4,0,0,1,1.5-.7,2.1,2.1,0,0,1,1.3.5Z"/><path d="M11.7,26.6H8.3a.6.6,0,0,0-.6.5.6.6,0,0,0,.6.6h3.4a.6.6,0,0,0,.6-.6.6.6,0,0,0-.6-.5Z"/><path d="M10,14.4H9.7l-.3.2v1.9h1.2V14.7Z"/></svg>