<svg id="Слой_1" data-name="Слой 1" xmlns="http://www.w3.org/2000/svg" viewBox="0 0 86 35"><path d="M1.2,27.3c-.6-.4-1-1.1-.4-1.6C1,19.2-.7,12.4.5,6.1,1,4.9,3.9,4.8,3.7,6c2,3.7,3,7.8,5,11.5A62,62,0,0,0,12,6.6c-.9-1.7,4.4-2.9,3.3-.8.9,6,.4,12.3.7,18.4.9,2,0,4.7-2.6,4.2-.7-.2-.8-.7-.3-1.2-.8-3.8-.1-7.8-.6-11.7-1,2.2-1.1,4.6-1.9,6.8.8,1.7-4.4,2.8-3.4.7-.7-2.9-2.5-5.4-3.5-8.2C3,17.8,6.7,29.1,1.2,27.3ZM22.3,7.8c-.1-.6-3.4.1-3.3.9.4,3.5-.1,6.9.8,10.3s.6,5.7.2,8.3c-.4.4,1.2.3,1.3.3,2.1-.1,2.5-2,2-3.7C23,18.5,22.5,13.2,22.3,7.8Zm3.1,6.7c.9,2.5,4.7,1.3,6.6,1.4s2.3,4.7,2.3,6.7,1,2.9.2,3.8c-5.1,1.9-5.4.4-4.8-4.3-.1-.8-3.4-.1-3.3.9s-1.2,5.1,2,5.5,10.9-.4,9.4-5.3c-.5-2.4.6-5.3-1-7.4-5.2-4.2-8.7,3.6-8.6-7.7-.1-1,.2-2.5,1.3-2.7s4.8-.2,4.3,2,3.1.4,3.3-.5C38,1.7,24.7,3.5,24.9,8,25.2,10.1,25,12.3,25.4,14.5Zm14.5,1.8c-.5,3.7.1,7.4.2,11-.2.6,3,.2,3.3-.6.4-3.1-1-6.2-.3-9.3a21.8,21.8,0,0,1,5.1-.1c.1,3.1.8,6.3.3,9.4s2.6,1.6,3.1.3c1.1-6.9-.9-14-.8-20.9,0-1.7-3.3-1.1-3.3.3,0,3.1.4,6.2.6,9.2l-4.9.3c.1-4-.5-7.8-.4-11.7C36.6,2.6,40.8,12.9,39.9,16.3ZM54,21.7c-.3.3-.2.4,0,.5s-1.3,5.2.7,5.4c3.6.3,2.3-4.1,2.6-6.4a32.1,32.1,0,0,0,3.4-4.8A106.9,106.9,0,0,1,65,27c.5,1.5,3.8.6,3.3-.9a110.2,110.2,0,0,0-5.6-13.3c1.8-2.9,2.5-6.7,5-9.2.5-.4.5-.8-.2-.8-4.8.1-5.5,6.4-7.7,9.7a.9.9,0,0,0-.5,1q-1,2.1-2.1,3.9c-.3-4.6-.8-9.3-1-14,0-1-3.3-.4-3.3.9.2,5.8,1,11.6,1.1,17.4Zm29.6-4.8C83,20,85.9,26.2,81.5,27c-.1,0-1.7.1-1.3-.3,1-2.9-.2-6.6.1-9.7-2.2.7-4.8-.5-7,.1-.4,3.2,2.2,11.6-3.2,10,.4-5.5-.7-11.1-.4-16.6s6.1-5.8,10.2-6,3,7,3.7,10.3C86,14.4,86.1,16.7,83.6,16.9Zm-3.3-1.6c-.7-2.9.6-6.7-1.1-9.2-6.4-1.9-6.8,4.6-6,9.3C75.4,14.9,77.9,15.5,80.3,15.3ZM18.6,4c0,.2,0,.4.2.5s2.2,1.2,2.9.4-.2-2.6.3-4-3.2-1.1-3.4.3a20.9,20.9,0,0,0,.1,2.5A.4.4,0,0,1,18.6,4ZM80.2,33.2c-12.8-2.8-26.1.1-39.1-.9S14.7,30.6,1.9,34.1c26,.5,52.5,1.9,78.4-.8v-.5A.6.6,0,0,0,80.2,33.2Z"/></svg>