<svg id="Слой_1" data-name="Слой 1" xmlns="http://www.w3.org/2000/svg" viewBox="0 0 149 72"><path d="M121.6,36.5c-2.8.3-5.8-.4-8.5.1-.9-5.5-.5-13.4,7.2-11C122.3,28.5,120.8,33.1,121.6,36.5Zm17.7-.4c-1,4.4-.9,9.7-2.5,13.7a67.4,67.4,0,0,1-3,8.6c.6-.1,1.3.5.6,1-6.4,4.4-15.3,2.2-22.4,1.4-4-.5-8.4,0-12.2-1.1-2.1-.5-4.8.3-6.5-1.1-15.8-.7-31.9,1.9-47.4,1.5-3.7.1-7.5.1-11.2,0A26.8,26.8,0,0,0,32.6,65c-4.9,3.1-1.7-2.6-.7-4.6-3.8.3-7.9.8-11.1-.9.4,1.3-6.1,5.8-5,2.5,1.4-1,2.5-3.1,4.4-2.9-1.1-.8-4.5-3.5-1.4-4.3.8-7.6-3.1-16-1-23.4.3-1.6-.5-4.1,1-5.1V25.1a8.4,8.4,0,0,1-.4-4.7c-2.7,1.1-4.8-2.4-7.3-3.1-1-.5,1.6-1.6,2.3-1.2a42.5,42.5,0,0,1,5.4,3.2A4.3,4.3,0,0,1,20.9,17c2.5-3.7,16.5,1.4,21.5-1C34.3-.6,58.1-2.2,61.4,12.1c2.5-1.6,2.4,1.2,3,2.7l1.6-.2c-.4-1.4-.3-2.5,1.6-2.7a2.5,2.5,0,0,1,.9-.4A10.5,10.5,0,0,1,68,9.6c-.4-1.3,2.5-2.1,2.8-.7a27.6,27.6,0,0,0,.8,2.7c3.1-1.2,1.9,2.9,2.8,4.5h.5c-.5-.9,1.3-1.9,2.2-1.3s-.1-1.1.4-1.4c-2.9,1.2-2.6-3.1-3.1-4.8s2.6-2.2,2.8-.8,1.6,3.9.6,5.3c1.9-.8,2.4.9,2.2,2.4h.2a48.7,48.7,0,0,1-.2-5.4c0-1,2.9-1.6,2.9-.7v3.9c1.5-.4,1.4.8.1,1.1l.3,1.9c.6-.1,1.3,0,1.3.4h1.1v-.4c-1.4.2-1-1.2,0-1.5V13.3c.5-1,3.5-1.5,2.8.2l.5.2c0-.2.2-.3.5-.4a24.7,24.7,0,0,1,1.1-3.6c.3-.9,3-1.2,2.8-.5-1,2.3-1.2,5-2.3,7.2v.3h.2c.3-1.5,1.8-3.5,3.3-2.2,1.2-17.7,30-21.8,20.4.1,1,.2,6.4-1.6,5.7.2,2-.1,4.1-.1,6.1,0s2.3-3.3,4.1-2.6.2,1-.2,1.2a4,4,0,0,0-1.3,1.8,14.3,14.3,0,0,1,2.8.7c.6.2,2.5.6,1.8,1.5s.4.6.5,1l.5.4c6.3-2,3.4,11.6,4.4,15.1a44.8,44.8,0,0,0,4.7-2.8C150.8,30.1,140.9,35.5,139.3,36.1ZM44.6,47.2c-.4-7.2.3-14.8-.8-22,1.3-2.5-5-1.1-4,.9a85.7,85.7,0,0,1-3.9,13.1c-2.4-4.4-3.7-9.3-6-13.7.2-1.6-3.2-1.4-3.9,0-1.4,7.6.7,15.7.3,23.5-.6.6-.1,1.5.5,1.9,6.6,2.4,2.2-11.5,3.1-15,1.2,3.4,3.4,6.4,4.2,9.9-1.3,2.5,4.9,1.2,4-.8.9-2.7,1.1-5.6,2.3-8.1.6,4.5-.2,9.4.7,13.9-1.5,2,2.4,1.8,3.2.7S44.9,48.6,44.6,47.2Zm6.8-23.1c1.7-1.1-.2-3.1.3-4.8s-3.8-1.3-4,.4a15.1,15.1,0,0,0,.2,3,.7.7,0,0,0,0,.9v.5C48.5,25.4,50.6,24.9,51.4,24.1Zm.9,10.5a54.3,54.3,0,0,0-.1-7c-.2-.7-4.1.1-4,1.1,0,7.4,1.5,15,1.1,22.2.2,1,3.4.1,3.9-.7C53.8,45.2,52.8,39.7,52.3,34.6ZM70.8,46.1c-.4-9.6.4-10.8-9.9-10.5-2.5-1.4-.9-5.3-1.6-7.6s.1-3.1,1.5-3.3,5.7-.3,5.2,2.4c-.3,1,3.6.5,3.9-.6C71,20.3,55,22.4,55.3,27.8c.6,7.7-1.1,10.7,8.4,9.5,3.9.3,2.8,5.6,2.8,8s1.2,3.5.2,4.6a4.5,4.5,0,0,1-2.8.7c-4.2,1.1-2.9-3.4-2.9-5.9-.1-.9-4.1-.1-3.9,1,.3,2.7-1.4,6.2,2.4,6.7s7.9-.4,10.8-2.7C71.4,48.7,71,47.3,70.8,46.1ZM86.3,25.6c0-2-4-1.4-3.9.3,0,3.7.5,7.4.6,11.1l-5.9.2c.2-4.6-.6-9.3-.4-13.9,0-.6-3.9-.1-3.9,1,0,6.7.7,13.3.1,20-.1,2.2,1,4.5.6,6.6s3.6.3,3.9-.7c.5-3.6-1.1-7.4-.4-11.2a32.1,32.1,0,0,1,6.2,0c.1,3.7,1,7.6.3,11.2-.8,2.1,3.2,1.9,3.7.4C88.6,42.4,86.2,33.8,86.3,25.6Zm2.4-9.5a2.9,2.9,0,0,0,.2-.9c0,.1,0,.1-.1,0s-.1.7-.2,1Zm18.6,33.5a126,126,0,0,0-6.8-16c2.3-3.5,3.1-8.1,6.1-11.1.5-.4.5-.9-.3-.9-5.8.2-6.6,7.7-9.2,11.6a1.1,1.1,0,0,0-.6,1.3,41.7,41.7,0,0,1-2.6,4.6c-.3-5.6-.9-11.1-1.1-16.7-.1-1.3-4-.5-4,1,.3,7,1.3,13.9,1.3,20.8-.3.3-.3.6,0,.7.6,1.7-1.5,6.4.9,6.4,4.3.3,2.8-5,3.1-7.7a33,33,0,0,0,4.1-5.7c2,4.1,3.5,8.5,5.1,12.7C103.9,52.4,107.8,51.4,107.3,49.6ZM125.6,36c-.9-4,1.8-12.7-4.5-12.4-4.8.2-11.4,1.3-12.1,7.2s.9,13.3.4,19.9c0,.6,4,0,4-1,0-3.7.1-7.3-.1-10.9,2.6-.8,5.7.7,8.3-.2-.3,3.8,1.1,8.1-.1,11.6-.5.5,1.5.3,1.6.3,5.3-.8,1.8-8.3,2.5-12C128.6,38.3,128.5,35.5,125.6,36ZM64.2,12.3c.7.6,3,.1,2.6-1s-.6-1.2-1-1.8-3,0-2.6,1.1A15.1,15.1,0,0,0,64.2,12.3ZM21.6,10.6c.5,1.2,3,.5,2.8-.7a3.8,3.8,0,0,0-.9-1.8c-.7-.9-3.2-.1-2.6,1.2A3.3,3.3,0,0,1,21.6,10.6Zm10,3c.8,0,3-1.3,1.1-1.3S29.7,13.6,31.6,13.6ZM123.5,12c1.2.3,3.2-1,2.9-2.3a2,2,0,0,0-2.6.5C123.5,10.8,122.2,11.7,123.5,12Zm13.3,5.4c1.2.4,7.7-5.2,4.4-4.5s-3.2,3-5.1,4.1S136.5,17.4,136.8,17.4Zm10.8,27.1c-1.9.4-5.3-1.1-6.4,1.1.8,2,4.4.5,6.2.9S149.6,44.3,147.6,44.5Zm-89.7,16c-2.3.1-2.3,3-3,4.7s2.6.4,2.8-.4S60.4,60.1,57.9,60.5Zm4.6,2.6c-1.1,0-2.4.3-2.5,1.5h0c.1.9,2.1.1,2.7-.3S63.2,63,62.5,63.1Zm55.1,3.7c-.4-.7-3.1.3-2.9.7,1.3,2,3.1,7,5.8,3.9A44.3,44.3,0,0,1,117.6,66.8Zm4-2.4c-.5-1-2.9-.4-2.8.8s1,3.4,2.8,2.7S122.2,65.7,121.6,64.4ZM6.6,42.8c-1.7.8-5.3.1-5.7,2.3,1.4,1.6,4.3-.4,6.2-.4S8.4,42.3,6.6,42.8Z"/></svg>