<svg xmlns="http://www.w3.org/2000/svg" viewBox="0 0 101 77">
  <g>
    <path d="M50.7,74.5c-7.9,0-15.2-.3-28.4-.9l-6-.3C4,72.1,3.3,64.6,2.7,49c0-2.1-.1-4.2-.2-6.4s.1-6,.1-9.3C2.5,15.9,3.4,4.5,15.2,3.7l9.6-.4c12.8-.5,19.2-.8,25.6-.8s12.6.3,25.2.8l10,.4c7.8.1,11.2,7.2,11.7,13.2,2.9,36.4-.2,48.7-3.4,52.7a10.9,10.9,0,0,1-7.8,3.6h-.6c-17.6.8-26.4,1.2-34.7,1.2Z" fill="#63d1bb"/>
    <path d="M50.4,5c6.2,0,12.5.3,25.1.8l10,.4h.2c7.7.1,9,9,9.1,10.9,3.1,38.6-.9,48.4-2.8,50.8a8.6,8.6,0,0,1-6.2,2.9h-.5C67.8,71.6,59.1,72,50.7,72s-15.1-.3-28.3-.9l-5.9-.3C7,69.9,5.8,65.5,5.2,48.9c0-2-.1-4.1-.2-6.3s.1-6.2.1-9.3c0-7.1,0-14.5,1.6-19.8s4-7,8.6-7.3L25,5.8C37.7,5.3,44.1,5,50.4,5m0-5C42.5,0,34.7.4,15.1,1.2S.8,26.1,0,42.6C.9,60.5-1.1,74.2,16.1,75.8S41.7,77,50.7,77s17.6-.4,35-1.2c2-.3,6.3-.3,10.1-4.6,7.6-9.3,4.9-43.8,4-54.5C99.1,9.4,94.9,1.3,85.7,1.2,66,.4,58.2,0,50.4,0Z" fill="#fff"/>
  </g>
  <polygon points="37.8 19.3 37.8 57.7 69.3 38.5 37.8 19.3" fill="#fff"/>
</svg>
