<?xml version="1.0" encoding="UTF-8"?><!DOCTYPE svg PUBLIC "-//W3C//DTD SVG 1.1//EN" "http://www.w3.org/Graphics/SVG/1.1/DTD/svg11.dtd"><svg xmlns="http://www.w3.org/2000/svg" xmlns:xlink="http://www.w3.org/1999/xlink"><symbol id="icon-clew" viewBox="0 0 34 34">
  <path d="M4.4,17,.3,20.1a16.2,16.2,0,0,1,0-6.2ZM24.1,1.6A16.5,16.5,0,0,0,9.1,2l7.4,5.5ZM33.5,13l-4.7,3.7,4.9,3.7A18.5,18.5,0,0,0,33.5,13ZM9.1,32.1a17.2,17.2,0,0,0,15.6.1l-8-6ZM7.8,14.3,1.7,9.7a12.1,12.1,0,0,0-.9,2l5.3,3.9ZM18.4,24.8,26.6,31l.8-.6a3.9,3.9,0,0,0,1-.8l-8.3-6.1ZM11.3,11.6,4,6.1A10.9,10.9,0,0,0,2.7,7.8l6.9,5.1ZM21.9,22.1l8,6a10.4,10.4,0,0,0,1.2-1.7l-7.5-5.6ZM14.8,8.9,7.1,3.2a1,1,0,0,0-.5.4l-1.2.9L13,10.2ZM25.3,19.4l6.9,5.2.9-2L27,18.1Zm.9-16.7L.9,22.4a11.9,11.9,0,0,0,.8,2L27.9,4A10.9,10.9,0,0,0,26.2,2.7Zm4.2,3.9-.9-1.1L2.8,26.3a4.4,4.4,0,0,0,.8,1.1L4,28,30.8,7.1A1,1,0,0,0,30.4,6.6Zm1.5,2.3L5.5,29.5l1.7,1.4,25.7-20A12.4,12.4,0,0,0,31.9,8.9Z" fill="#231f20"/>
</symbol><symbol id="icon-dollar" viewBox="0 0 47 27">
  <path d="M43.1,0H3.9A3.9,3.9,0,0,0,0,3.9V23.1A3.9,3.9,0,0,0,3.9,27H43.1A3.9,3.9,0,0,0,47,23.1V3.9A3.9,3.9,0,0,0,43.1,0ZM3.1,24.6V2.7H43.6V24.6Zm4.1-4H39.8V6.4H7.2ZM23.7,8.2A5.3,5.3,0,0,1,29,13.5a5.4,5.4,0,0,1-10.7,0A5.4,5.4,0,0,1,23.7,8.2Z"/>
</symbol><symbol id="icon-flower" viewBox="0 0 32 37">
  <path d="M16,37A16,16,0,0,0,32,21.1,16,16,0,0,0,16,37ZM4.6,16.3a4.5,4.5,0,0,0,4.5,4.4,4.4,4.4,0,0,0,2.5-.8v.4a4.4,4.4,0,1,0,8.8,0v-.4a4.4,4.4,0,0,0,2.5.8,4.4,4.4,0,0,0,1.9-8.4,4.4,4.4,0,0,0,2.6-3.9A4.4,4.4,0,0,0,22.9,4a5.2,5.2,0,0,0-2.5.7V4.4a4.4,4.4,0,1,0-8.8,0v.3A4.3,4.3,0,0,0,9.1,4,4.4,4.4,0,0,0,4.6,8.4a4.4,4.4,0,0,0,2.6,3.9A4.4,4.4,0,0,0,4.6,16.3ZM16,7.9a4.4,4.4,0,0,1,4.4,4.4A4.3,4.3,0,0,1,16,16.7a4.3,4.3,0,0,1-4.4-4.4A4.4,4.4,0,0,1,16,7.9ZM0,21.1A16,16,0,0,0,16,37,16,16,0,0,0,0,21.1Z" fill="#231f20"/>
</symbol><symbol id="icon-gift" viewBox="0 0 32 32">
  <path d="M2.8,32H15.1V18.3H2.8ZM30.4,8.7H23.3a5.7,5.7,0,0,0,1.3-.8A4.8,4.8,0,0,0,27,4a3.8,3.8,0,0,0-1.3-2.9,4.6,4.6,0,0,0-3-1.1,5.2,5.2,0,0,0-3.2,1.1,9.5,9.5,0,0,0-3.4,4v.2a16.2,16.2,0,0,0-1-1.8,9.5,9.5,0,0,0-2.5-2.4A5.2,5.2,0,0,0,9.3,0,4.4,4.4,0,0,0,6.2,1.3,4.1,4.1,0,0,0,4.8,4.4a4.2,4.2,0,0,0,.6,2.1A6.4,6.4,0,0,0,8,8.7H1.6A1.6,1.6,0,0,0,0,10.3v5.8H15.1V8.7h1.8v7.4H32V10.3a1.6,1.6,0,0,0-1.6-1.6M8.5,6.4A4.4,4.4,0,0,1,7.3,5.3a1.5,1.5,0,0,1-.2-.9,1.8,1.8,0,0,1,.6-1.5,2.5,2.5,0,0,1,1.6-.6h0a4.1,4.1,0,0,1,2,.6,9.4,9.4,0,0,1,2.6,3.2,6.8,6.8,0,0,1,.7,2A15,15,0,0,1,8.5,6.4M18.9,4.8a6.6,6.6,0,0,1,1.8-1.9,3.9,3.9,0,0,1,2-.6h0a2.5,2.5,0,0,1,1.5.5A1.3,1.3,0,0,1,24.7,4c0,.5-.2,1.2-1.4,2.1a15.7,15.7,0,0,1-6,2.2,10,10,0,0,1,1.6-3.5M16.9,32H29.2V18.3H16.9Z" fill="#231f20"/>
</symbol><symbol id="icon-heart" viewBox="0 0 34 27">
  <path d="M34,8.5A8.7,8.7,0,0,0,25,0a9.1,9.1,0,0,0-8,4.6A9.1,9.1,0,0,0,9,0,8.7,8.7,0,0,0,0,8.5C0,17.3,15.1,27,17,27S34,17.4,34,8.5Z" fill="#231f20"/>
</symbol><symbol id="icon-rocket" viewBox="0 0 55 23">
  <path d="M39,11.5a10.1,10.1,0,0,0,1.9,5.8A47.8,47.8,0,0,1,28.4,19a45.2,45.2,0,0,1-7.8-.7L13.7,23H0l5.9-6.1h8.8a25.6,25.6,0,0,1-7.1-3.5V9.6a22.3,22.3,0,0,1,6.9-3.5H5.9L0,0H13.7l6.9,4.6A57.6,57.6,0,0,1,28.4,4,47.8,47.8,0,0,1,40.9,5.7,10.1,10.1,0,0,0,39,11.5Zm5.4-4.8a7.7,7.7,0,0,0-2,4.8,7.7,7.7,0,0,0,2,4.8A47.7,47.7,0,0,0,55,11.5,47.7,47.7,0,0,0,44.4,6.7Z"/>
</symbol></svg>