<svg id="Слой_1" data-name="Слой 1" xmlns="http://www.w3.org/2000/svg" viewBox="0 0 25 24">
  <path d="M17.4,24H16.3A17.8,17.8,0,0,1,5.1,18.3,19.2,19.2,0,0,1,0,6.7V5.4A3.3,3.3,0,0,1,1.1,3.3,4.4,4.4,0,0,1,3.6,1.8a3.4,3.4,0,0,1,2.3,1,6.1,6.1,0,0,1,.7,2.4,8.6,8.6,0,0,1,.5,2.7C7,9.1,5.4,9.6,4.9,10.4a15.8,15.8,0,0,0,7.5,8.2c.9-.4,1.6-1.8,2.8-1.8l1.4.3,1.3.5a5,5,0,0,1,2.4,1.2,3.1,3.1,0,0,1,.6,2.2C20.7,22.2,18.7,23.6,17.4,24ZM12.6,1.5A10.8,10.8,0,0,1,23.5,12.1H25A12.2,12.2,0,0,0,12.6,0Zm0,7.7v1.5A1.4,1.4,0,0,1,14,12.1h1.6A2.9,2.9,0,0,0,12.6,9.2Zm0-3a6,6,0,0,1,6.1,5.9h1.6a7.6,7.6,0,0,0-7.7-7.5Z"/>
</svg>
