<svg xmlns="http://www.w3.org/2000/svg" viewBox="0 0 10 10"><path d="M0,7.3,4.6,10V6.1L0,3.4ZM8.6,2.1v.4c0,.3-.6.5-1.3.5S6,2.8,6,2.5V1.8H6c0,.3.6.5,1.3.5s1.3-.2,1.3-.5S8,1.2,7.3,1.2H7.1L6.3.8v.5c0,.3-.6.5-1.3.5L3.9,1.6a.1.1,0,0,0-.1-.1V.8l-.8.4H2.7c-.7,0-1.3.3-1.3.6s.6.5,1.3.5S4,2.1,4,1.8H4v.7c0,.3-.6.5-1.3.5s-1.3-.2-1.3-.5V2.1l-1,.6L5,5.4,9.6,2.7ZM6.3,3.8c0,.3-.6.5-1.3.5s-1.3-.2-1.3-.5V3.1h0c.1.3.6.5,1.3.5s1.2-.2,1.3-.5h0v.7ZM5.4,6.1V10L10,7.3V3.4ZM5,1.1c.7,0,1.3-.2,1.3-.5S5.7,0,5,0,3.7.2,3.7.6s.6.5,1.3.5"/></svg>